<svg xmlns="http://www.w3.org/2000/svg" xmlns:xlink="http://www.w3.org/1999/xlink" viewBox="0 0 386.6406 386.5886"><defs><clipPath id="clip-path" transform="translate(0.1406 -0.1615)"><rect width="386" height="386" fill="none"/></clipPath></defs><g id="Capa_2" data-name="Capa 2"><g id="Capa_1-2" data-name="Capa 1"><path d="M182.3021,284.5833a4.5938,4.5938,0,1,0,4.5833,4.5834A4.59,4.59,0,0,0,182.3021,284.5833ZM238.26,274.5677a4.5964,4.5964,0,1,0,4.6094,4.5886A4.6013,4.6013,0,0,0,238.26,274.5677Zm-93.2031-10.0364a4.5938,4.5938,0,1,0,4.6042,4.5833A4.59,4.59,0,0,0,145.0573,264.5313Zm69.4219-.2292a4.5834,4.5834,0,1,0,4.5781,4.5833A4.557,4.557,0,0,0,214.4792,264.3021Zm46.0208-160c2.625-.0781,4.0938,1.4635,4.9948,6.7969,11.76,68.62-16.1094,112.5625-57.1458,117.8385-4.0938.5156-7.198.2813-9.2657-.6979a123.3781,123.3781,0,0,0-9.0364,24.401h93.6458a2.4171,2.4171,0,0,1,2.01,3.76,112.3117,112.3117,0,0,1-185.0468,0,2.4159,2.4159,0,0,1,1.7447-3.76h74.8021a180.3991,180.3991,0,0,0-7.5677-25.2812c-49.24,4.6354-46.3021-58.4271-64.5312-77.5729-3.474-3.9167-.6667-7.1563,2.99-7.9532,23.8385-5.0989,49.88,2.6771,69.4479,18.4584a73.1607,73.1607,0,0,0-5.7917,36.9635,96.6238,96.6238,0,0,0-13.0833-15.1094c-6.2813-5.6562-8.9532-3.6823-3.1354,2.8073a137.4613,137.4613,0,0,1,16.5468,25.38,142.9554,142.9554,0,0,1,12.5573,31.7136c4.0938-10.0886,10.224-21.5938,18.4063-36.0156,8.1614-17.0417,19.0989-33.7448,29.1146-48.0782,2.3645-3.3489-.698-5.7708-2.349-3.7812-13.974,16.8594-28.776,38.1458-39.3333,59.7135-5.2188,10.6875-7.0521,6.4636-9.8282-1.2291-15.0052-41.698,10.0157-88.1615,73.7761-106.9271A27.1657,27.1657,0,0,1,260.5,104.3021ZM193.1667,66.9583a126.5393,126.5393,0,1,0,89.4479,37.0625A126.4747,126.4747,0,0,0,193.1667,66.9583Z" transform="translate(0.1406 -0.1615)" fill="#334782" fill-rule="evenodd"/><g clip-path="url(#clip-path)"><path d="M193.1667,9.5A183.9506,183.9506,0,1,1,9.2031,193.4375,183.872,183.872,0,0,1,193.1667,9.5Zm0-9.3385C86.474.1615-.1406,86.724-.1406,193.4375-.1406,300.13,86.4688,386.75,193.1667,386.75,299.88,386.75,386.5,300.13,386.5,193.4375,386.5,86.724,299.88.1615,193.1667.1615Z" transform="translate(0.1406 -0.1615)" fill="#334782" fill-rule="evenodd"/></g><path d="M50.875,229.8073c-1.3385,1.2917-3.5208,2.24-6.5365,2.8854a13.7464,13.7464,0,0,1-7.1562.0781,4.7564,4.7564,0,0,1-3.1458-3.8333,4.8187,4.8187,0,0,1,1.2916-4.8437,13.6949,13.6949,0,0,1,6.5365-2.88c3.0417-.6458,5.4062-.6718,7.1562-.052a5.4169,5.4169,0,0,1,1.8542,8.6458Zm-16.3229,8.1094c2.8854,1.4427,6.5677,1.7031,11.0729.7187a24.074,24.074,0,0,0,5.276-1.776,12.9293,12.9293,0,0,0,4.1146-2.9844,9.7618,9.7618,0,0,0,2.2969-4.276,13.521,13.521,0,0,0-2.349-10.8855,9.8481,9.8481,0,0,0-3.8593-2.9843,13.21,13.21,0,0,0-4.9688-1.0313,25.4712,25.4712,0,0,0-10.88,2.3438,13.1915,13.1915,0,0,0-4.0937,2.9843,10.4734,10.4734,0,0,0-2.3177,4.2969,12.4553,12.4553,0,0,0,.0572,5.6927C29.7188,233.8281,31.599,236.4479,34.5521,237.9167Z" transform="translate(0.1406 -0.1615)" fill="#334782"/><path d="M61.8438,257.0365a2.4384,2.4384,0,0,1-.6928,1.1614,4.8707,4.8707,0,0,1-1.4166.9323,3.1089,3.1089,0,0,1-1.7552.3281,2.6742,2.6742,0,0,1-1.3646-.6093,4.6266,4.6266,0,0,1-1.0521-1.24c-.2812-.5156-.5417-1.0313-.7708-1.5417l-1.5-3.3229,6.3333-2.8073,1.724,3.8333A4.6466,4.6466,0,0,1,61.8438,257.0365Zm-19.6928,10.63,2.7553,6.1875L53.74,263.1406a7.2258,7.2258,0,0,0,3.9062,2.2136,7.3685,7.3685,0,0,0,4.5313-.6146,10.1772,10.1772,0,0,0,3.1875-2.1615,7.4991,7.4991,0,0,0,1.7812-2.8593,7.86,7.86,0,0,0,.3334-3.3178,12.3049,12.3049,0,0,0-1.0313-3.6822l-4.63-10.3959L35.974,253.88l2.4739,5.5365,10.2188-4.5886,1.5677,3.5573Z" transform="translate(0.1406 -0.1615)" fill="#334782"/><path d="M61.25,298.2761,64,302.0573,75.8958,293.38l-6.5833-9.0052-4.2292,3.0833,3.0677,4.224a5,5,0,0,1-6.7968-1.5417,4.0217,4.0217,0,0,1-.9323-2.8073,6.7456,6.7456,0,0,1,.8541-2.7031,12.4115,12.4115,0,0,1,1.9011-2.37,25.3288,25.3288,0,0,1,2.2135-1.8541c.6719-.49,1.5-1.0053,2.4167-1.5678a12.7382,12.7382,0,0,1,3.01-1.2656,6.7165,6.7165,0,0,1,2.9375-.151,3.7412,3.7412,0,0,1,2.474,1.6719,4.6273,4.6273,0,0,1,1.13,3.2656,8.4013,8.4013,0,0,1-1.1875,3.3489l4.5312,3.6771a14.3324,14.3324,0,0,0,1.9532-3.651,8.72,8.72,0,0,0,.4427-3.3229,11.6173,11.6173,0,0,0-2.1875-5.8177,12.2469,12.2469,0,0,0-4.375-3.8907,10.3291,10.3291,0,0,0-4.9011-1.0781,13.535,13.535,0,0,0-5.0937,1.1615,26.1677,26.1677,0,0,0-4.9636,2.8489,22.6828,22.6828,0,0,0-3.9166,3.6354,13.1787,13.1787,0,0,0-2.3907,4.25,10.119,10.119,0,0,0-.4375,4.6823,11.1082,11.1082,0,0,0,2.1615,4.9167,10.7053,10.7053,0,0,0,2.5937,2.5729,8.82,8.82,0,0,0,3.4271,1.2656Z" transform="translate(0.1406 -0.1615)" fill="#334782"/><path d="M94.6094,303.0156l-4.87,9.1563-3.9323-3.5781ZM84.3906,322.2917l4.5261,4.12,13.1041-26.3594-5.276-4.8177L71.62,310.6823l4.5052,4.0885,5.1979-3.2968,5.9271,5.401Z" transform="translate(0.1406 -0.1615)" fill="#334782"/><path d="M112.99,341.9844l4.8854,2.88,14.3906-24.349-4.9635-2.9323-9.0156,15.26.2135-20.4584-5.2812-3.12-14.3907,24.349,4.9688,2.9427,9.4479-15.9635Z" transform="translate(0.1406 -0.1615)" fill="#334782"/><path d="M130.5938,350.2292l10.052-26.4584,5.6875,2.1615-10.052,26.4583Z" transform="translate(0.1406 -0.1615)" fill="#334782"/><path d="M167.2448,358.9427a8.916,8.916,0,0,0,2.7292-1.875,15.2116,15.2116,0,0,0,2.552-3.1719l-5.2812-2.5937a17.1674,17.1674,0,0,1-1.2031,1.4687,6.3855,6.3855,0,0,1-1.2657,1.1094,3.7852,3.7852,0,0,1-1.5156.5365,4.9034,4.9034,0,0,1-1.88-.0781,4.1917,4.1917,0,0,1-3.5052-2.9844c-.5677-1.7031-.5365-4.0209.0573-6.9792.13-.5364.2552-1.1614.4115-1.8229a16.989,16.989,0,0,1,1.5989-3.8594,7.3174,7.3174,0,0,1,1.2865-1.5208,4.2958,4.2958,0,0,1,1.62-.9531,4.1316,4.1316,0,0,1,2.0885-.0782,3.9138,3.9138,0,0,1,2.7552,1.724,7.9793,7.9793,0,0,1,1.0521,3.1667l5.7135-.2032a16.1016,16.1016,0,0,0-.875-4.2448,6.8524,6.8524,0,0,0-1.776-2.7864,11.2016,11.2016,0,0,0-5.6406-2.75,10.9789,10.9789,0,0,0-5.5313.0989,10.2944,10.2944,0,0,0-4.1719,2.4948,14.0579,14.0579,0,0,0-2.802,4.1719,23.4264,23.4264,0,0,0-1.6459,5.1719,26.312,26.312,0,0,0-.5156,5.4323,14.4915,14.4915,0,0,0,.974,4.9427,9.7389,9.7389,0,0,0,2.8073,3.8594,11.0839,11.0839,0,0,0,5.0677,2.2708A10.9554,10.9554,0,0,0,167.2448,358.9427Z" transform="translate(0.1406 -0.1615)" fill="#334782"/><path d="M214.8385,338.4063a2.65,2.65,0,0,1,.9063.9739,4.403,4.403,0,0,1,.4583,1.6719,3.8671,3.8671,0,0,1-.1562,1.7812,3.0231,3.0231,0,0,1-.8959,1.13,4.3661,4.3661,0,0,1-1.3906.6666,10.0574,10.0574,0,0,1-1.6771.3386l-3.8073.4583-.8489-6.9427,3.8073-.4688A5.778,5.778,0,0,1,214.8385,338.4063Zm5.5365,8.4948a7.8423,7.8423,0,0,0,1.901-6.6667,9.0735,9.0735,0,0,0-1.2916-3.8594,6.5839,6.5839,0,0,0-2.4427-2.4167,8.2954,8.2954,0,0,0-3.3646-1.0833,16.5221,16.5221,0,0,0-4.0208.0261l-10.3959,1.26,3.4531,28.0833L210.24,361.5l-1.3438-11.0156,4.3021-.5156Q218.0183,349.375,220.375,346.9011Z" transform="translate(0.1406 -0.1615)" fill="#334782"/><path d="M242.6875,331.4271a2.9245,2.9245,0,0,1,1.0625.8229,4.1572,4.1572,0,0,1,.7969,1.5,3.2028,3.2028,0,0,1,.151,1.7969,2.8608,2.8608,0,0,1-.7448,1.2917,5.0461,5.0461,0,0,1-1.3125.9218,16.4222,16.4222,0,0,1-1.6458.62l-3.4219,1.13-2.1927-6.5625,3.99-1.3385A4.8407,4.8407,0,0,1,242.6875,331.4271Zm8.625,20.6719,6.4063-2.1615-9.7813-9.8281a7.003,7.003,0,0,0,2.5729-3.6563,7.3455,7.3455,0,0,0-.1562-4.552A8.9035,8.9035,0,0,0,248.5,328.5a7.2347,7.2347,0,0,0-2.651-2.0573,7.905,7.905,0,0,0-3.2657-.6719,12.1856,12.1856,0,0,0-3.7812.6719l-10.7865,3.599,8.9532,26.8489,5.74-1.9323-3.526-10.6093,3.6823-1.2292Z" transform="translate(0.1406 -0.1615)" fill="#334782"/><path d="M271.4688,318.7344c1.6458.8489,3.2447,2.63,4.8072,5.2812,1.5678,2.6823,2.3386,4.9167,2.2969,6.7761a5.4522,5.4522,0,0,1-7.625,4.5c-1.6458-.875-3.2448-2.625-4.8125-5.2969-1.5625-2.6823-2.3177-4.9219-2.2916-6.776a5.4344,5.4344,0,0,1,7.625-4.4844Zm12.8177,12.9271q.7344-4.7891-2.7865-10.7292a22.1476,22.1476,0,0,0-3.375-4.4531,12.4168,12.4168,0,0,0-4.1146-2.9427,9.449,9.449,0,0,0-4.7864-.8438,11.6438,11.6438,0,0,0-5.38,1.7969,12.0188,12.0188,0,0,0-4.2136,3.8333,10.4768,10.4768,0,0,0-1.6042,4.6094,13.0074,13.0074,0,0,0,.5938,5.0469,23.8617,23.8617,0,0,0,2.2917,5.0937,24.518,24.518,0,0,0,3.3489,4.5052,14.3039,14.3039,0,0,0,4.1146,2.9636,10.4412,10.4412,0,0,0,4.8073.8229,12.0409,12.0409,0,0,0,5.4115-1.8542Q283.6172,336.5807,284.2865,331.6615Z" transform="translate(0.1406 -0.1615)" fill="#334782"/><path d="M295.5886,300.13a7.8433,7.8433,0,0,1,2.802,1.2084,14.9851,14.9851,0,0,1,2.9636,2.552,19.9747,19.9747,0,0,1,2.1094,2.75,8.2694,8.2694,0,0,1,1.1093,2.8542,5.451,5.451,0,0,1-.26,2.8594,7.5527,7.5527,0,0,1-2.0573,2.8281l-2.3125,2.1146-12.0208-13.125L290.2865,302A6.1516,6.1516,0,0,1,295.5886,300.13Zm14.9218,9.599a11.3119,11.3119,0,0,0-1.13-4.9427,23.0289,23.0289,0,0,0-7.9583-8.7448,12.1659,12.1659,0,0,0-4.7813-1.724,10.5709,10.5709,0,0,0-4.9166.6459,15.31,15.31,0,0,0-5,3.1666l-6.8438,6.2813L299,325.2865l6.9011-6.3282C308.9948,316.1146,310.5365,313.0208,310.51,309.7292Z" transform="translate(0.1406 -0.1615)" fill="#334782"/><path d="M332.9323,283.4011c-.4948-2.625-2.1875-4.9688-5.125-7.0521l-14.3281-10.1407-3.5052,4.9167L324.26,281.24c1.7813,1.26,2.8334,2.4479,3.12,3.5521a3.2639,3.2639,0,0,1-.0573,1.7812,6.3625,6.3625,0,0,1-1.0781,2.1354c-1.0312,1.4688-2.1354,2.2136-3.2708,2.24-1.13.099-2.625-.49-4.4271-1.7812l-14.2083-10.0625-3.5,4.9427,14.5729,10.2969c2.8489,2.0364,5.5781,2.8073,8.2343,2.3437,2.599-.51,4.9219-2.1875,6.9219-5.0208C332.599,288.7813,333.4011,286.0313,332.9323,283.4011Z" transform="translate(0.1406 -0.1615)" fill="#334782"/><path d="M348.8438,253.7969a9.7225,9.7225,0,0,0-1.2917-3.0625,15.8472,15.8472,0,0,0-2.5677-3.1406l-3.6354,4.63a12.206,12.206,0,0,1,1.1875,1.4635,7.75,7.75,0,0,1,.8229,1.4688,4.0163,4.0163,0,0,1,.2344,1.5937,5.5207,5.5207,0,0,1-.4584,1.8333,4.2442,4.2442,0,0,1-3.6562,2.8021c-1.7813.2136-4.0417-.2812-6.8229-1.4844-.51-.2343-1.0834-.49-1.698-.7708a17.85,17.85,0,0,1-1.7812-1.0625,17.3471,17.3471,0,0,1-1.6719-1.3125,7.2119,7.2119,0,0,1-1.2344-1.5625,4.5363,4.5363,0,0,1-.5937-1.7812,4.2267,4.2267,0,0,1,.3646-2.0573,3.9647,3.9647,0,0,1,2.2344-2.3438,8.5542,8.5542,0,0,1,3.3229-.3854l.9739-5.6094a15.2117,15.2117,0,0,0-4.3229-.026,7.1515,7.1515,0,0,0-3.0885,1.1614,11.2366,11.2366,0,0,0-3.8594,4.9636,10.6543,10.6543,0,0,0-1.0313,5.4323,9.9777,9.9777,0,0,0,1.5678,4.5885,14.1175,14.1175,0,0,0,3.5,3.599,23.6086,23.6086,0,0,0,4.7083,2.6823,26.813,26.813,0,0,0,5.2239,1.6458,14.2985,14.2985,0,0,0,5.0209.0521,9.6806,9.6806,0,0,0,4.375-1.9583,11.0128,11.0128,0,0,0,3.2656-4.4792A11.2387,11.2387,0,0,0,348.8438,253.7969Z" transform="translate(0.1406 -0.1615)" fill="#334782"/><path d="M335.2761,222.9115l1.5468-7.0313-5.0989-1.1042-4.4063,19.9011,5.1042,1.1042,1.5417-6.974,22.526,4.9948,1.3073-5.9011Z" transform="translate(0.1406 -0.1615)" fill="#334782"/><path d="M72.4427,127.0313l8.3438-13.4584-4.375-2.7031-2.4948,4.0365L51.2188,100.849l-2.5521,4.12a6.8908,6.8908,0,0,1-.2813,3.6562,23.2682,23.2682,0,0,1-1.5677,3.3438l3.7813,2.37,2.8854-4.63,17.0833,10.599-2.4948,4.0156Z" transform="translate(0.1406 -0.1615)" fill="#334782"/><path d="M74.8385,83.8906a19.5381,19.5381,0,0,1,6.7969,4.37c2.625,2.3386,4.349,4.4323,5.12,6.2552a4.1621,4.1621,0,0,1-5.1719,5.7917,19.4569,19.4569,0,0,1-6.7968-4.349,20.2158,20.2158,0,0,1-5.12-6.25,4.1692,4.1692,0,0,1,5.1718-5.8177Zm17.9636,9.5469c-.849-3.3229-3.1354-6.6406-6.8958-9.99a33.6865,33.6865,0,0,0-4.5834-3.3958,15.7409,15.7409,0,0,0-5.0937-2.1094,10.9452,10.9452,0,0,0-5.1771.1563,10.1827,10.1827,0,0,0-4.8906,3.2656,10.06,10.06,0,0,0-2.6719,5.25,10.7012,10.7012,0,0,0,.4323,5.1458,15.752,15.752,0,0,0,2.6823,4.8177,33.4171,33.4171,0,0,0,3.9114,4.1667,35.79,35.79,0,0,0,4.6407,3.4583,16.6349,16.6349,0,0,0,5.0677,2.0782,11.0007,11.0007,0,0,0,5.1718-.1511,10.1171,10.1171,0,0,0,4.87-3.2969C92.8281,99.9531,93.6771,96.8385,92.8021,93.4375Z" transform="translate(0.1406 -0.1615)" fill="#334782"/><path d="M97.0521,63.8958a19.5642,19.5642,0,0,1,5.9167,5.5105,19.8928,19.8928,0,0,1,3.9427,7.052,4.1787,4.1787,0,0,1-6.13,4.7917,19.6665,19.6665,0,0,1-5.9167-5.49,19.639,19.639,0,0,1-3.9375-7.0781,4.1736,4.1736,0,0,1,6.125-4.7865Zm15.99,12.5782q-.3828-5.1329-5.0209-11.0417a33.6656,33.6656,0,0,0-3.9114-4.1979A16.37,16.37,0,0,0,99.474,58.276a10.8831,10.8831,0,0,0-5.12-.7708,10.1974,10.1974,0,0,0-5.38,2.3646,10.07,10.07,0,0,0-3.5782,4.6875,10.6271,10.6271,0,0,0-.4895,5.151,15.885,15.885,0,0,0,1.7812,5.2032,32.3174,32.3174,0,0,0,3.1354,4.8073,33.2858,33.2858,0,0,0,3.9427,4.1927,16.1751,16.1751,0,0,0,4.63,2.9635,10.7186,10.7186,0,0,0,5.12.7708,10.0843,10.0843,0,0,0,5.3542-2.3906A9.7726,9.7726,0,0,0,113.0417,76.474Z" transform="translate(0.1406 -0.1615)" fill="#334782"/><path d="M117.7448,48.5521a2.9239,2.9239,0,0,1,1.7031,1.5417,2.9926,2.9926,0,0,1,.1042,2.3177,2.793,2.793,0,0,1-1.5,1.7448,3.25,3.25,0,0,1-2.3125.1614,2.97,2.97,0,0,1-1.724-1.5781,3.03,3.03,0,0,1-.1354-2.3125,2.98,2.98,0,0,1,3.8646-1.875Zm24.099,5.5052a2.8142,2.8142,0,0,1,1.6979,1.5208,3.04,3.04,0,0,1,.13,2.3334,2.88,2.88,0,0,1-1.5417,1.7031,2.9377,2.9377,0,0,1-2.2917.1562,2.775,2.775,0,0,1-1.7031-1.5208,2.8649,2.8649,0,0,1-.12-2.3385,2.9065,2.9065,0,0,1,1.5677-1.698A2.9372,2.9372,0,0,1,141.8438,54.0573Zm-17.5521.0521a7.5414,7.5414,0,0,0-.26-6.1511,7.9122,7.9122,0,0,0-4.6146-4.1145,7.7638,7.7638,0,0,0-3.0834-.5157,7.9217,7.9217,0,0,0-3.0885.7709,7.5321,7.5321,0,0,0-2.5521,1.9062,8.9875,8.9875,0,0,0-1.5937,2.6719,7.97,7.97,0,0,0-.5157,3.0417,7.674,7.674,0,0,0,.7448,3.0625,8.1251,8.1251,0,0,0,1.9375,2.5937A9.08,9.08,0,0,0,113.9375,59a8.8891,8.8891,0,0,0,3.0885.49,7.6233,7.6233,0,0,0,3.1407-.7708A7.7636,7.7636,0,0,0,124.2917,54.1094Zm5.375,17.4531,2.5521-36.9115-4.198,1.9844-2.526,36.8854ZM148.38,59.5885a7.52,7.52,0,0,0-.2344-6.125,7.6347,7.6347,0,0,0-1.901-2.5468,8.7593,8.7593,0,0,0-5.7917-2.0834,8.0943,8.0943,0,0,0-3.12.7709,8.2546,8.2546,0,0,0-2.552,1.9062,8.8779,8.8779,0,0,0-1.5938,2.6719,8.3909,8.3909,0,0,0-.5156,3.0417,7.6916,7.6916,0,0,0,.7448,3.0625A8.5744,8.5744,0,0,0,135.349,62.88a8.8517,8.8517,0,0,0,2.7031,1.62,8.5168,8.5168,0,0,0,3.0677.4688,8.2936,8.2936,0,0,0,3.1406-.7917A7.8952,7.8952,0,0,0,148.38,59.5885Z" transform="translate(0.1406 -0.1615)" fill="#334782"/><path d="M186.1354,54.9063l6.26-.7188-3.5573-31.224-6.38.7448,2.2136,19.5365-13.51-18.25-6.75.75,3.5573,31.2187,6.38-.7135L172.01,35.7813Z" transform="translate(0.1406 -0.1615)" fill="#334782"/><path d="M210.25,31.7969l1.9583,11.3177-5.8906-.4583Zm4.125,23.8854,6.7969.5365-6.4063-32.0782L206.8385,23.5,195.276,54.13l6.7448.5365,2.3177-6.4063,8.9063.6927Z" transform="translate(0.1406 -0.1615)" fill="#334782"/><path d="M238.9844,34.599l7.75,1.927,1.4062-5.6041-21.9739-5.49-1.3907,5.6354,7.698,1.9063L226.2656,57.87l6.51,1.62Z" transform="translate(0.1406 -0.1615)" fill="#334782"/><path d="M264.26,68.7292c2.75-1.0573,4.9636-3.4219,6.6406-7.0573l8.0782-17.7656-6.125-2.7709-8.0261,17.6771c-1.01,2.2135-2.0885,3.5781-3.2448,4.1458a3.47,3.47,0,0,1-1.9531.3125,7.6771,7.6771,0,0,1-2.5521-.7187c-1.7968-.849-2.8593-1.88-3.12-3.1146-.3281-1.2448,0-2.9635,1.01-5.2031l8-17.6042-6.0938-2.7864-8.2083,18.0468c-1.599,3.5313-1.88,6.6927-.8229,9.4479,1.1041,2.75,3.3906,4.9428,6.9166,6.5365Q260.0807,70.3125,264.26,68.7292Z" transform="translate(0.1406 -0.1615)" fill="#334782"/><path d="M296.6146,63.6354a2.9189,2.9189,0,0,1-.0521,1.49,4.7611,4.7611,0,0,1-.8542,1.6719,3.3821,3.3821,0,0,1-1.5156,1.2864,3.0494,3.0494,0,0,1-1.62.1823,5.8007,5.8007,0,0,1-1.7031-.6146c-.5677-.3385-1.1042-.6927-1.62-1.052l-3.24-2.375L290.51,58l3.7813,2.75A5.258,5.258,0,0,1,296.6146,63.6354ZM283.5417,84.7708l6.0677,4.4011,2.5781-15.1875a7.76,7.76,0,0,0,4.9636-.0521,8.0442,8.0442,0,0,0,4.0156-3.0885,10.5821,10.5821,0,0,0,1.88-3.8594,7.8622,7.8622,0,0,0,.125-3.7031,8.58,8.58,0,0,0-1.5156-3.4011,13.4922,13.4922,0,0,0-3.0417-2.9844l-10.2188-7.4114L269.9375,74.9375,275.37,78.88l7.3125-10.0625,3.474,2.5208Z" transform="translate(0.1406 -0.1615)" fill="#334782"/><path d="M316.4844,83.2969l-6.1511,9.7291-4.0364-4.302Zm-12.9688,20.49,4.6563,4.9427,16.8125-28.0521-5.4583-5.7917L290.3854,89.8073l4.6354,4.9219,6.0469-3.1875,6.1042,6.5052Z" transform="translate(0.1406 -0.1615)" fill="#334782"/><path d="M309.5886,111.099l10.9427,16.7031,4.8854-3.1927-7.2813-11.0938,21.4167-14.0312L335.87,93.87Z" transform="translate(0.1406 -0.1615)" fill="#334782"/></g></g></svg>