<svg xmlns="http://www.w3.org/2000/svg" viewBox="0 0 275.2717 387.3794"><g id="Capa_2" data-name="Capa 2"><g id="Capa_1-2" data-name="Capa 1"><path d="M19.3908,3.1138c37.901-12.2083,84.87,12.8177,95.0833,51.7448,5.26,19.6458-8.5261,36.026-22.4844,47.63,22.9688,19.7083,47.75,41.5885,51.3177,73.6875-9.7344.12-19.4635.1823-29.1979.24-3.0833-19.1615-6.0417-39.6511-18.9792-55.0052C68.4116,88.7075,46.8335,52.3169,27.0053,15.145,36.797,50.3221,50.4012,84.9,72.5835,114.218c-18.8594,4.5312-41.7084,3.625-54.6459-12.875C-6.604,73.8377-1.828,31.0409,19.3908,3.1138Z" fill="#38b6ff"/><path d="M164.5262,70.27c22.3646-27.9843,62.7448-27.1979,93.4531-15.1093,14.87,33.5468,4.1667,79.7291-31.1927,95.2656-17.2292,8.2812-34.76-2.2969-48.599-12.0885-7.5573,12.3281-14.51,25.026-21.0364,37.901-.9063-5.3229-2.599-15.901-3.4479-21.2188,25.026-35.302,58.9375-63.1666,92.0625-90.6718C215,79.0982,186.2866,98.1971,162.4689,122.8013,155.7605,106.119,150.6824,84.9627,164.5262,70.27Z" fill="#38b6ff"/><path d="M1.922,209.0617c-3.4479-6.8333-2.901-18.1354,7.01-18.2552,81-1.6927,162.1823-.0625,243.3021-.7865,7.2552.9063,16.8646-1.51,22.2448,5.0157,2.6615,7.7968-2.1146,15.5937-3.5677,23.151C253.7449,274.0409,237.7293,330.26,220.62,386.1138c-48.0573,2.474-96.2344.3021-144.3489,1.2656-7.74-1.1458-20.9167,3.3854-23.0313-7.6771C35.047,323.1867,19.3283,265.8794,1.922,209.0617M130.25,203.619c-.0625,4.8958-.3021,14.63-.3646,19.526-18.9791,4.7761-38.26,20.49-33.6041,42.3125,3.38,22.5469,28.651,27.9271,45.8177,36.8125,11.3646,3.448,19.3437,18.3178,9.9114,27.9271-15.5937,12.8125-36.0885,3.8073-52.651-1.6927-1.6927,6.6511-3.3229,13.2969-4.651,20.01,11.1823,3.0834,22.5468,5.62,33.9114,8.0365,0,6.651.0573,13.3021.0573,19.9479,4.1146,0,12.3333,0,16.4427-.0573,0-6.9531.0625-13.9062.12-20.8541,12.6354-4.9011,27.625-9.9167,32.6458-23.9375,9.5469-19.1042-2.12-42.7969-21.8229-49.3282-12.5729-7.7968-35.4843-9.6718-35.6041-28.4114,9.125-20.25,34.3333-10.6354,50.5937-6.4688,1.2083-4.5312,3.625-13.6614,4.8386-18.2552-9.7969-2.4739-19.6459-4.8958-29.4428-7.13.0625-4.5937.125-13.7812.1823-18.375C142.5835,203.6815,134.36,203.619,130.25,203.619Z" fill="#38b6ff"/></g></g></svg>