<svg xmlns="http://www.w3.org/2000/svg" xmlns:xlink="http://www.w3.org/1999/xlink" viewBox="0 0 372.02 399.57"><defs><style>.cls-1{fill:none;}.cls-2{clip-path:url(#clip-path);}.cls-3{fill:#334782;}.cls-4{clip-path:url(#clip-path-2);}.cls-5{clip-path:url(#clip-path-3);}</style><clipPath id="clip-path" transform="translate(0.04 -0.22)"><rect class="cls-1" x="205.33" width="22.67" height="48.67"/></clipPath><clipPath id="clip-path-2" transform="translate(0.04 -0.22)"><rect class="cls-1" x="192" y="212.67" width="146.67" height="187.33"/></clipPath><clipPath id="clip-path-3" transform="translate(0.04 -0.22)"><rect class="cls-1" y="212.67" width="104" height="181.33"/></clipPath></defs><g id="Capa_2" data-name="Capa 2"><g id="Capa_1-2" data-name="Capa 1"><g class="cls-2"><path class="cls-3" d="M206.64,10.55a10.34,10.34,0,0,1,20.67,0V38.11a10.34,10.34,0,0,1-20.67,0Z" transform="translate(0.04 -0.22)"/></g><path class="cls-3" d="M130.86,31.22a10.31,10.31,0,0,0,3,7.31L154.55,59.2a10.33,10.33,0,0,0,14.62-14.61L148.5,23.92a10.33,10.33,0,0,0-17.64,7.3Z" transform="translate(0.04 -0.22)"/><path class="cls-3" d="M292.76,20.89a10.31,10.31,0,0,0-7.31,3L264.78,44.58A10.33,10.33,0,0,0,279.39,59.2l20.67-20.67a10.33,10.33,0,0,0-7.3-17.64Z" transform="translate(0.04 -0.22)"/><g class="cls-4"><path class="cls-3" d="M335.85,329.84a23.47,23.47,0,0,0-13.38-30.66l-53.83-20.73V227.57a13.78,13.78,0,1,0-27.56,0V334.93l-25.65-21.44a13.71,13.71,0,0,0-19.32,19.32l51.86,67h62l25.88-70Z" transform="translate(0.04 -0.22)"/></g><g class="cls-5"><path class="cls-3" d="M103.3,248.23A13.72,13.72,0,0,0,80.61,237.8L48.18,267.39v-53.6L19.07,230.43A37.9,37.9,0,0,0,0,263.34V392.91H55.08V379.13c0-28.27,14-26.32,13.77-62a51.27,51.27,0,0,1,7.56-26l24.35-35a13.65,13.65,0,0,0,2.54-7.93Z" transform="translate(0.04 -0.22)"/></g><path class="cls-3" d="M108.68,268.91,89.49,296.46H227.31V268.91Z" transform="translate(0.04 -0.22)"/><path class="cls-3" d="M351.31,82.89H82.63A20.67,20.67,0,0,0,62,103.56V236.18l9.37-8.55a27.77,27.77,0,0,1,18.19-6.95,27.38,27.38,0,0,1,20.67,9.52V110.45H344.42V268.9h-62l45,17.42a37,37,0,0,1,14.44,10.13h9.45A20.67,20.67,0,0,0,372,275.78V103.55a20.67,20.67,0,0,0-20.67-20.66Z" transform="translate(0.04 -0.22)"/><path class="cls-3" d="M199.75,234.46a13.7,13.7,0,0,0,8-2.57L229.93,216a27.45,27.45,0,0,1,22-15.71l4-2.9a13.7,13.7,0,0,0,0-22.36l-48.26-34.48A13.75,13.75,0,0,0,186,151.78v68.89a13.78,13.78,0,0,0,13.78,13.78Z" transform="translate(0.04 -0.22)"/></g></g></svg>