<svg xmlns="http://www.w3.org/2000/svg" xmlns:xlink="http://www.w3.org/1999/xlink" viewBox="0 0 319.66 399.99"><defs><style>.cls-1{fill:none;}.cls-2{clip-path:url(#clip-path);}.cls-3{fill:#334782;}.cls-4{clip-path:url(#clip-path-2);}.cls-5{clip-path:url(#clip-path-3);}.cls-6{fill:#38b6ff;}.cls-7{clip-path:url(#clip-path-4);}.cls-8{fill:#fff;}</style><clipPath id="clip-path" transform="translate(-0.03)"><rect class="cls-1" x="27.18" y="198" width="152" height="202"/></clipPath><clipPath id="clip-path-2" transform="translate(-0.03)"><rect class="cls-1" x="140.52" y="198" width="152" height="202"/></clipPath><clipPath id="clip-path-3" transform="translate(-0.03)"><rect class="cls-1" width="320" height="320.67"/></clipPath><clipPath id="clip-path-4" transform="translate(-0.03)"><rect class="cls-1" x="141.03" y="110.6" width="38" height="102"/></clipPath></defs><g id="Capa_2" data-name="Capa 2"><g id="Capa_1-2" data-name="Capa 1"><g class="cls-2"><path class="cls-3" d="M102.85,400,78.76,354.31,28.51,366.23l38.17-84.05,38.17-84L142,215l37.16,16.89Z" transform="translate(-0.03)"/></g><g class="cls-4"><path class="cls-3" d="M216.86,400,241,354.31l50.25,11.92L253,282.18l-38.17-84L177.69,215l-37.17,16.89,38.17,84Z" transform="translate(-0.03)"/></g><g class="cls-5"><path class="cls-6" d="M319.69,159.83c0,10.31-12,19.31-13.88,29-2,10,5.58,22.91,1.74,32.14-3.89,9.39-18.38,13.13-24,21.47s-3.57,23.23-10.7,30.36-21.95,5.08-30.36,10.71-12.09,20.08-21.48,24-22.11-3.74-32.14-1.76c-9.74,1.93-18.74,13.88-29.05,13.88s-19.3-12-29-13.88c-10-2-22.91,5.58-32.14,1.75s-13.13-18.38-21.48-24S54,280,46.83,272.85s-5.07-21.94-10.7-30.36S16.05,230.4,12.15,221c-3.83-9.23,3.74-22.1,1.76-32.14C12,179.14,0,170.14,0,159.83s11.94-19.3,13.88-29-5.59-22.91-1.75-32.14c3.89-9.4,18.38-13.13,24-21.48S39.71,54,46.84,46.81,68.78,41.73,77.2,36.1,89.29,16,98.68,12.13c9.23-3.83,22.1,3.73,32.14,1.75C140.55,12,149.55,0,159.86,0s19.3,12,29,13.88c10,2,22.91-5.58,32.14-1.74,9.4,3.89,13.13,18.38,21.48,24s23.22,3.57,30.36,10.7,5.07,22,10.7,30.36,20.08,12.09,24,21.48c3.83,9.24-3.74,22.11-1.75,32.14C307.73,140.53,319.69,149.53,319.69,159.83Z" transform="translate(-0.03)"/></g><path class="cls-3" d="M282.13,159.83q0,3-.15,6t-.44,6q-.3,3-.73,6c-.3,2-.64,3.94-1,5.91s-.83,3.91-1.32,5.86-1,3.86-1.6,5.78-1.2,3.82-1.88,5.7-1.39,3.75-2.16,5.6-1.58,3.67-2.43,5.48-1.75,3.6-2.7,5.36-1.93,3.51-3,5.23-2.09,3.4-3.21,5.07-2.26,3.3-3.45,4.9-2.43,3.19-3.69,4.74-2.58,3.06-3.93,4.54-2.72,2.93-4.14,4.35-2.86,2.79-4.34,4.13-3,2.65-4.55,3.92-3.12,2.5-4.73,3.7-3.24,2.34-4.9,3.45-3.36,2.18-5.08,3.21-3.45,2-5.22,3-3.55,1.85-5.36,2.7-3.64,1.67-5.48,2.43-3.72,1.49-5.6,2.16-3.79,1.31-5.7,1.88-3.84,1.12-5.79,1.6-3.89.93-5.85,1.32-3.93.73-5.91,1-4,.53-6,.73-4,.34-6,.44-4,.15-6,.15-4-.05-6-.15-4-.24-6-.44-4-.44-6-.73-3.95-.64-5.91-1-3.92-.83-5.86-1.32-3.86-1-5.78-1.6-3.82-1.2-5.7-1.88-3.75-1.39-5.6-2.16-3.67-1.58-5.49-2.43-3.59-1.76-5.36-2.7-3.5-1.93-5.22-3-3.41-2.1-5.07-3.21-3.3-2.26-4.9-3.45-3.19-2.42-4.74-3.7-3.06-2.57-4.54-3.92-2.93-2.72-4.35-4.13-2.79-2.87-4.13-4.35-2.66-3-3.93-4.54-2.5-3.13-3.69-4.74-2.34-3.24-3.45-4.9S56,224.41,55,222.7s-2-3.46-2.95-5.23-1.85-3.55-2.7-5.36-1.67-3.64-2.43-5.48-1.49-3.72-2.17-5.6-1.3-3.79-1.88-5.7-1.11-3.85-1.6-5.78-.92-3.9-1.31-5.86-.73-3.93-1-5.91-.54-4-.73-6-.35-4-.45-6-.14-4-.14-6,.05-4,.14-6,.25-4,.45-6,.44-4,.73-6,.64-3.95,1-5.91.83-3.92,1.31-5.85,1-3.87,1.6-5.79,1.21-3.81,1.88-5.7,1.4-3.75,2.17-5.6,1.57-3.68,2.43-5.48,1.75-3.6,2.7-5.37S54,98.69,55,97s2.1-3.4,3.22-5.07,2.26-3.3,3.45-4.91,2.42-3.18,3.69-4.72,2.58-3.07,3.93-4.55,2.72-2.93,4.13-4.34,2.87-2.8,4.35-4.15,3-2.65,4.54-3.92,3.13-2.5,4.74-3.69,3.24-2.34,4.9-3.45S95.28,56,97,55s3.46-2,5.22-3,3.56-1.83,5.36-2.69,3.64-1.67,5.49-2.44,3.72-1.48,5.6-2.15,3.78-1.3,5.7-1.89,3.84-1.11,5.78-1.6,3.9-.92,5.86-1.31,3.93-.73,5.91-1,4-.54,6-.73,4-.34,6-.44,4-.15,6-.15,4,0,6,.15,4,.24,6,.44,4,.44,6,.73,3.94.64,5.91,1,3.92.83,5.85,1.31,3.87,1,5.79,1.6,3.81,1.21,5.7,1.89,3.75,1.39,5.6,2.15,3.67,1.58,5.48,2.44,3.6,1.75,5.36,2.69,3.51,1.94,5.22,3,3.41,2.1,5.08,3.22,3.29,2.26,4.9,3.45,3.19,2.43,4.73,3.69,3.06,2.58,4.55,3.92,2.93,2.73,4.34,4.15,2.8,2.85,4.14,4.34,2.65,3,3.93,4.55,2.5,3.12,3.69,4.72,2.34,3.25,3.45,4.91,2.18,3.36,3.21,5.07,2,3.46,3,5.22,1.84,3.55,2.7,5.37,1.67,3.63,2.43,5.48,1.49,3.72,2.16,5.6,1.3,3.79,1.88,5.7,1.12,3.84,1.6,5.79.93,3.89,1.32,5.85.73,3.93,1,5.91.53,4,.73,6,.34,4,.44,6S282.13,157.83,282.13,159.83Z" transform="translate(-0.03)"/><g class="cls-7"><path class="cls-8" d="M154.58,110.67,141,125.7v10.73h13.55v75.86h24.09V110.67Z" transform="translate(-0.03)"/></g></g></g></svg>