<svg xmlns="http://www.w3.org/2000/svg" xmlns:xlink="http://www.w3.org/1999/xlink" viewBox="0 0 380.86 380.84"><defs><style>.cls-1{fill:none;}.cls-2{fill:#334782;}.cls-3{clip-path:url(#clip-path);}</style><clipPath id="clip-path" transform="translate(0 -0.09)"><rect class="cls-1" x="298.24" width="82.34" height="82.66"/></clipPath></defs><g id="Capa_2" data-name="Capa 2"><g id="Capa_1-2" data-name="Capa 1"><path class="cls-2" d="M157.65,65.65q-3.89,0-7.74.19c-2.58.12-5.15.32-7.72.57s-5.13.57-7.68.94-5.09.83-7.62,1.33-5,1.06-7.55,1.7-5,1.31-7.46,2.06S107,74,104.54,74.86s-4.84,1.8-7.22,2.79-4.75,2-7.08,3.14-4.64,2.26-6.91,3.48-4.52,2.48-6.73,3.81-4.39,2.7-6.54,4.14-4.25,2.92-6.33,4.45-4.1,3.13-6.09,4.76-4,3.33-5.86,5S48,110,46.17,111.82s-3.6,3.7-5.33,5.61-3.42,3.86-5.06,5.86-3.22,4-4.76,6.1-3,4.18-4.45,6.32-2.81,4.33-4.14,6.54-2.6,4.45-3.82,6.73-2.37,4.58-3.47,6.91S13,160.58,12,163s-1.92,4.8-2.79,7.23-1.67,4.87-2.42,7.34-1.44,5-2.07,7.46S3.53,190,3,192.54s-.95,5.07-1.33,7.62S1,205.28.76,207.84.31,213,.19,215.56,0,220.71,0,223.3s.06,5.15.19,7.73.32,5.15.57,7.71.57,5.14.94,7.69.83,5.09,1.33,7.62,1.06,5.05,1.69,7.55,1.32,5,2.07,7.46S8.34,274,9.21,276.4s1.8,4.84,2.79,7.23,2,4.73,3.14,7.07,2.26,4.63,3.47,6.91,2.49,4.52,3.82,6.73,2.71,4.39,4.14,6.54,2.91,4.25,4.45,6.32,3.13,4.11,4.76,6.1,3.32,3.95,5.06,5.86,3.51,3.78,5.33,5.61,3.69,3.6,5.61,5.33,3.86,3.42,5.86,5.06,4,3.22,6.09,4.76,4.19,3,6.33,4.45,4.33,2.82,6.54,4.14,4.46,2.6,6.73,3.81,4.58,2.38,6.91,3.48,4.69,2.15,7.08,3.14,4.78,1.91,7.22,2.78,4.87,1.68,7.34,2.43,5,1.44,7.46,2.06,5,1.2,7.55,1.7,5.07.94,7.62,1.32,5.12.7,7.68.95,5.14.45,7.72.57,5.15.19,7.74.19,5.15-.06,7.73-.19,5.15-.32,7.71-.57,5.13-.57,7.69-.95,5.09-.81,7.62-1.32,5-1.07,7.55-1.7,5-1.31,7.46-2.06,4.91-1.56,7.35-2.43,4.83-1.79,7.21-2.78,4.74-2,7.08-3.14,4.63-2.26,6.91-3.48,4.52-2.48,6.73-3.81,4.39-2.7,6.54-4.14,4.25-2.92,6.32-4.45,4.11-3.13,6.1-4.76,4-3.33,5.86-5.06,3.78-3.51,5.6-5.33,3.61-3.7,5.34-5.61,3.42-3.86,5.06-5.86,3.22-4,4.76-6.1,3-4.18,4.45-6.32,2.82-4.33,4.14-6.54,2.6-4.45,3.82-6.73,2.37-4.58,3.47-6.91,2.15-4.69,3.14-7.07,1.91-4.8,2.78-7.23,1.68-4.87,2.43-7.34,1.44-5,2.06-7.46,1.2-5,1.7-7.55.94-5.07,1.32-7.62.7-5.12.95-7.69.44-5.14.57-7.71.19-5.15.19-7.73-.07-5.16-.19-7.74-.32-5.15-.57-7.72-.57-5.13-.95-7.68-.81-5.09-1.32-7.62-1.07-5-1.7-7.55-1.31-5-2.06-7.46-1.56-4.92-2.43-7.34-1.79-4.84-2.78-7.23-2-4.74-3.14-7.07-2.26-4.63-3.47-6.91-2.49-4.52-3.82-6.73-2.7-4.4-4.14-6.54-2.92-4.25-4.45-6.32-3.13-4.11-4.76-6.1-3.33-4-5.06-5.86-3.51-3.78-5.34-5.61-3.69-3.6-5.6-5.34-3.86-3.41-5.86-5-4-3.22-6.1-4.76-4.18-3-6.32-4.45-4.33-2.81-6.54-4.14-4.46-2.6-6.73-3.81-4.58-2.38-6.91-3.48-4.7-2.15-7.08-3.14-4.79-1.92-7.21-2.79-4.88-1.67-7.35-2.42-5-1.44-7.46-2.06-5-1.2-7.55-1.7-5.07-1-7.62-1.33-5.12-.69-7.69-.94-5.13-.45-7.71-.57S160.22,65.65,157.65,65.65Zm0,276c-1.94,0-3.88-.05-5.81-.15s-3.87-.23-5.8-.42-3.85-.43-5.76-.72-3.83-.61-5.72-1-3.79-.8-5.67-1.27-3.74-1-5.6-1.55-3.69-1.17-5.51-1.82-3.63-1.35-5.43-2.09-3.55-1.53-5.3-2.35-3.49-1.7-5.19-2.62-3.4-1.86-5.06-2.86-3.29-2-4.9-3.11-3.2-2.19-4.75-3.34-3.09-2.34-4.58-3.57-3-2.5-4.4-3.8-2.84-2.64-4.21-4-2.7-2.77-4-4.2-2.57-2.9-3.8-4.4-2.42-3-3.57-4.58-2.27-3.14-3.35-4.75-2.11-3.24-3.1-4.9-2-3.35-2.86-5.06-1.79-3.44-2.62-5.19-1.61-3.52-2.35-5.31-1.44-3.6-2.09-5.42S45,259.5,44.4,257.65s-1.08-3.72-1.55-5.6-.9-3.77-1.28-5.67-.71-3.81-1-5.72-.52-3.84-.71-5.77-.33-3.85-.43-5.79-.14-3.87-.14-5.81.05-3.87.14-5.81.24-3.86.43-5.79.43-3.85.71-5.76.62-3.83,1-5.73.81-3.78,1.28-5.66,1-3.75,1.55-5.6,1.17-3.69,1.82-5.51,1.35-3.63,2.09-5.42,1.52-3.56,2.35-5.32,1.7-3.48,2.62-5.18,1.86-3.4,2.86-5.06,2-3.29,3.1-4.9,2.2-3.2,3.35-4.75,2.34-3.09,3.57-4.58,2.5-3,3.8-4.4,2.63-2.84,4-4.21,2.77-2.7,4.21-4,2.9-2.56,4.4-3.79,3-2.42,4.58-3.57,3.14-2.27,4.75-3.34,3.24-2.12,4.9-3.11,3.35-2,5-2.87,3.45-1.78,5.2-2.61,3.52-1.61,5.3-2.35,3.6-1.44,5.43-2.09,3.66-1.26,5.51-1.82,3.72-1.08,5.6-1.56,3.77-.89,5.67-1.27,3.8-.7,5.72-1,3.83-.52,5.76-.71,3.86-.33,5.8-.43,3.87-.14,5.81-.14,3.87,0,5.8.14,3.87.24,5.79.43,3.85.43,5.77.71,3.82.61,5.72,1,3.79.81,5.67,1.27,3.75,1,5.59,1.56,3.7,1.16,5.52,1.82,3.63,1.35,5.42,2.09,3.56,1.52,5.31,2.35,3.48,1.7,5.19,2.61,3.39,1.87,5,2.87,3.3,2,4.91,3.11,3.19,2.18,4.75,3.34,3.08,2.34,4.58,3.57,3,2.5,4.4,3.79,2.84,2.64,4.21,4,2.7,2.78,4,4.21,2.57,2.9,3.8,4.4,2.42,3,3.57,4.58,2.27,3.14,3.34,4.75,2.12,3.24,3.11,4.9,2,3.35,2.87,5.06,1.78,3.43,2.61,5.19,1.61,3.52,2.35,5.31,1.44,3.59,2.09,5.42,1.26,3.66,1.82,5.51,1.08,3.72,1.55,5.6.9,3.77,1.27,5.67.71,3.81,1,5.72.52,3.84.71,5.76.33,3.86.42,5.8.15,3.87.15,5.81-.05,3.87-.15,5.8-.23,3.87-.42,5.8-.43,3.84-.71,5.76-.62,3.82-1,5.72-.8,3.79-1.27,5.67-1,3.75-1.55,5.6-1.17,3.69-1.82,5.51-1.35,3.63-2.09,5.42-1.53,3.56-2.35,5.31-1.7,3.49-2.61,5.19-1.87,3.39-2.87,5.06-2,3.29-3.11,4.9-2.19,3.19-3.34,4.75-2.35,3.09-3.57,4.58-2.5,3-3.8,4.4-2.64,2.83-4,4.2-2.78,2.71-4.21,4-2.9,2.57-4.4,3.8-3,2.42-4.58,3.57-3.14,2.27-4.75,3.34-3.24,2.12-4.91,3.11-3.34,1.95-5,2.87-3.44,1.78-5.19,2.61-3.52,1.61-5.31,2.35-3.59,1.44-5.42,2.09-3.66,1.26-5.52,1.82-3.71,1.08-5.59,1.55-3.77.89-5.67,1.27-3.81.71-5.72,1-3.84.52-5.77.71-3.85.33-5.79.42-3.87.15-5.8.15Z" transform="translate(0 -0.09)"/><path class="cls-2" d="M157.65,144.47q-3.89,0-7.73.38T142.27,146c-2.54.51-5,1.13-7.51,1.88s-4.9,1.62-7.28,2.61-4.71,2.09-7,3.31a75.69,75.69,0,0,0-6.64,4q-3.21,2.15-6.21,4.6c-2,1.64-3.91,3.37-5.73,5.2s-3.56,3.74-5.2,5.73-3.17,4.06-4.61,6.22a76.41,76.41,0,0,0-4,6.63c-1.22,2.28-2.32,4.6-3.31,7s-1.86,4.81-2.61,7.28-1.37,5-1.88,7.51-.88,5.08-1.13,7.65-.38,5.14-.38,7.73.13,5.15.38,7.72.63,5.12,1.13,7.65,1.13,5,1.88,7.51,1.62,4.89,2.61,7.28,2.09,4.72,3.31,7,2.54,4.49,4,6.64,3,4.21,4.61,6.21,3.37,3.9,5.2,5.73,3.74,3.56,5.73,5.19,4.07,3.18,6.21,4.61,4.36,2.76,6.64,4,4.6,2.32,7,3.31,4.81,1.85,7.28,2.6a77,77,0,0,0,7.51,1.88q3.79.75,7.65,1.14c2.57.25,5.14.38,7.73.38s5.15-.13,7.72-.38,5.12-.64,7.65-1.14,5-1.13,7.51-1.88,4.89-1.62,7.28-2.6,4.72-2.09,7-3.31,4.49-2.54,6.64-4,4.21-3,6.21-4.61,3.9-3.37,5.73-5.19,3.56-3.73,5.19-5.73,3.18-4.07,4.61-6.21,2.76-4.36,4-6.64,2.32-4.61,3.31-7,1.85-4.81,2.6-7.28,1.38-5,1.88-7.51.88-5.08,1.14-7.65.38-5.14.38-7.72-.13-5.16-.38-7.73-.64-5.12-1.14-7.65-1.13-5-1.88-7.51-1.62-4.89-2.6-7.28-2.09-4.71-3.31-7-2.55-4.49-4-6.63a75.74,75.74,0,0,0-4.61-6.22c-1.63-2-3.37-3.9-5.19-5.73s-3.73-3.56-5.73-5.2-4.07-3.17-6.21-4.6a75.69,75.69,0,0,0-6.64-4c-2.27-1.22-4.61-2.32-7-3.31s-4.82-1.86-7.28-2.61-5-1.37-7.51-1.88-5.08-.88-7.65-1.13S160.22,144.47,157.65,144.47Zm0,112.44a34.85,34.85,0,0,1-6.56-.65,31.84,31.84,0,0,1-3.2-.8c-1.06-.32-2.09-.69-3.11-1.11s-2-.89-3-1.41-1.91-1.09-2.83-1.7-1.8-1.27-2.65-2-1.66-1.44-2.44-2.22-1.52-1.59-2.22-2.44-1.35-1.73-2-2.65-1.17-1.86-1.69-2.83-1-2-1.41-3-.79-2.06-1.11-3.11a31.84,31.84,0,0,1-.8-3.2,33.58,33.58,0,0,1-.49-9.85c.11-1.1.27-2.18.49-3.27a32.34,32.34,0,0,1,.8-3.19c.32-1.06.69-2.09,1.11-3.11a32.43,32.43,0,0,1,1.41-3c.52-1,1.08-1.91,1.69-2.83s1.27-1.8,2-2.65a35,35,0,0,1,4.66-4.66c.85-.7,1.73-1.35,2.65-2s1.86-1.17,2.83-1.69,2-1,3-1.41,2.05-.79,3.11-1.11a31.84,31.84,0,0,1,3.2-.8,32.77,32.77,0,0,1,6.56-.65c1.09,0,2.19,0,3.29.16a32.44,32.44,0,0,1,3.26.49,31.84,31.84,0,0,1,3.2.8c1,.32,2.09.69,3.11,1.11a32.43,32.43,0,0,1,3,1.41c1,.52,1.91,1.08,2.83,1.69s1.79,1.27,2.65,2a30.15,30.15,0,0,1,2.44,2.22,32.12,32.12,0,0,1,2.22,2.44,31.79,31.79,0,0,1,2,2.65c.61.92,1.18,1.86,1.7,2.83a32.43,32.43,0,0,1,1.41,3c.42,1,.79,2,1.11,3.11a32.34,32.34,0,0,1,.8,3.19,30.32,30.32,0,0,1,.48,3.27,32,32,0,0,1,0,6.59,30.14,30.14,0,0,1-.48,3.26,31.84,31.84,0,0,1-.8,3.2c-.32,1-.69,2.09-1.11,3.11s-.89,2-1.41,3-1.09,1.91-1.7,2.83a31.79,31.79,0,0,1-2,2.65,35,35,0,0,1-4.66,4.66c-.85.69-1.74,1.35-2.65,2s-1.86,1.18-2.83,1.7a32.43,32.43,0,0,1-3,1.41c-1,.42-2.06.79-3.11,1.11a31.84,31.84,0,0,1-3.2.8,29.78,29.78,0,0,1-3.26.48C159.84,256.85,158.74,256.91,157.65,256.91Z" transform="translate(0 -0.09)"/><path class="cls-2" d="M298.12,86.9,159.68,225.33a2.93,2.93,0,0,1-2,.84,2.82,2.82,0,0,1-1.11-.22,2.76,2.76,0,0,1-.93-.62,2.94,2.94,0,0,1-.63-.93,3,3,0,0,1,0-2.21,2.94,2.94,0,0,1,.63-.93L294.06,82.8l.14,4Z" transform="translate(0 -0.09)"/><g class="cls-3"><path class="cls-2" d="M333.24,82.43l-33.47-1.24-1.23-33.47L346.16.09l-1.82,36.52,36.52-1.81Z" transform="translate(0 -0.09)"/></g></g></g></svg>