<svg xmlns="http://www.w3.org/2000/svg" xmlns:xlink="http://www.w3.org/1999/xlink" viewBox="0 0 398.57 354.48"><defs><style>.cls-1{fill:none;}.cls-2{clip-path:url(#clip-path);}.cls-3{fill:#334782;fill-rule:evenodd;}</style><clipPath id="clip-path" transform="translate(0 -0.74)"><rect class="cls-1" width="399.33" height="256"/></clipPath></defs><g id="Capa_2" data-name="Capa 2"><g id="Capa_1-2" data-name="Capa 1"><g class="cls-2"><path class="cls-3" d="M57.38,40.64c5.24,26,36.46,180.52,36.46,180.52a43.17,43.17,0,0,0,42.47,34.42H332.45a43.16,43.16,0,0,0,42.47-34.42C380.8,191.88,391,141,397.75,107.28a42.3,42.3,0,0,0-9.12-35.53,43.58,43.58,0,0,0-33.35-15.46H113.49A43.77,43.77,0,0,0,90.85,62.6L85.28,35A42.69,42.69,0,0,0,43.43.74H14.23a14.24,14.24,0,0,0,0,28.48h29.2A14.21,14.21,0,0,1,57.38,40.64ZM274,115.38,230.49,165.3l-27.44-24.61a14.23,14.23,0,0,0-19,21.18l38.19,34.28a14.21,14.21,0,0,0,20.24-1.25l53-60.82A14.24,14.24,0,0,0,274,115.38Z" transform="translate(0 -0.74)"/></g><path class="cls-3" d="M163.7,269.81a42.71,42.71,0,1,0,42.71,42.71A42.73,42.73,0,0,0,163.7,269.81Zm135.23,0a42.71,42.71,0,1,0,42.71,42.71A42.72,42.72,0,0,0,298.93,269.81Z" transform="translate(0 -0.74)"/></g></g></svg>