<svg xmlns="http://www.w3.org/2000/svg" xmlns:xlink="http://www.w3.org/1999/xlink" viewBox="0 0 399.71 114.95"><defs><style>.cls-1{fill:none;}.cls-2{fill:#334782;}.cls-3{fill:#38b6ff;}.cls-4{clip-path:url(#clip-path);}.cls-5{fill:#23315c;}.cls-6{clip-path:url(#clip-path-2);}.cls-7{clip-path:url(#clip-path-3);}.cls-8{clip-path:url(#clip-path-4);}</style><clipPath id="clip-path" transform="translate(-0.02)"><rect class="cls-1" x="0.67" y="48.34" width="91.33" height="22.67"/></clipPath><clipPath id="clip-path-2" transform="translate(-0.02)"><rect class="cls-1" x="0.67" y="45.68" width="91.33" height="22.67"/></clipPath><clipPath id="clip-path-3" transform="translate(-0.02)"><rect class="cls-1" x="40.67" width="41.33" height="21.68"/></clipPath><clipPath id="clip-path-4" transform="translate(-0.02)"><rect class="cls-1" y="4.34" width="88.67" height="42.67"/></clipPath></defs><g id="Capa_2" data-name="Capa 2"><g id="Capa_1-2" data-name="Capa 1"><path class="cls-2" d="M74.69,110.33a84.26,84.26,0,0,1-56.7-.6,2.47,2.47,0,0,1-1.61-2.47c.35-5.81,1.28-24.3,1.8-34.9l.37-7.64c18,.94,37.08,3.35,55.41-.78.07,0,.27,3.11.53,7.76.61,10.92,1.57,30.18,1.86,36.16A2.48,2.48,0,0,1,74.69,110.33Z" transform="translate(-0.02)"/><path class="cls-3" d="M74.49,71.7a116.49,116.49,0,0,1-56.31.66l.37-7.64c18,.94,37.08,3.35,55.41-.78C74,63.91,74.23,67.05,74.49,71.7Z" transform="translate(-0.02)"/><g class="cls-4"><path class="cls-5" d="M.7,59.42V57s23.63-8.57,45.72-8.57c22.88,0,45.72,8.68,45.72,8.68v2.32c0,6.07-20.47,11-45.72,11S.7,65.49.7,59.42Z" transform="translate(-0.02)"/></g><g class="cls-6"><path class="cls-2" d="M92.14,57.1a2.78,2.78,0,0,1-.22,1.08,4.25,4.25,0,0,1-.66,1.07,7.86,7.86,0,0,1-1.09,1,13.64,13.64,0,0,1-1.51,1,19,19,0,0,1-1.92,1c-.7.32-1.47.63-2.3.92s-1.73.59-2.68.87-2,.55-3,.8-2.17.5-3.32.72-2.36.45-3.61.65-2.53.39-3.85.55-2.67.33-4,.47-2.79.26-4.23.36-2.88.19-4.35.26-3,.13-4.44.16-3,0-4.48,0-3,0-4.48,0-3-.09-4.44-.16-2.92-.16-4.35-.26-2.84-.23-4.22-.36-2.74-.3-4.06-.47-2.6-.35-3.85-.55-2.45-.42-3.6-.65-2.27-.46-3.33-.72-2.06-.52-3-.8-1.84-.56-2.67-.87-1.6-.6-2.31-.92a21.39,21.39,0,0,1-1.92-1,12.76,12.76,0,0,1-1.51-1,7.86,7.86,0,0,1-1.09-1,4.25,4.25,0,0,1-.66-1.07A3,3,0,0,1,.7,57.1,2.93,2.93,0,0,1,.92,56,4.25,4.25,0,0,1,1.58,55a7.86,7.86,0,0,1,1.09-1.05,12.76,12.76,0,0,1,1.51-1c.58-.33,1.22-.66,1.92-1S7.58,51.3,8.41,51s1.72-.58,2.67-.86,2-.55,3-.8,2.17-.5,3.33-.73,2.36-.44,3.6-.64,2.53-.38,3.85-.55,2.67-.33,4.06-.46,2.79-.26,4.22-.37,2.88-.19,4.35-.26,3-.12,4.44-.16,3,0,4.48,0,3,0,4.48,0,3,.09,4.44.16,2.92.16,4.35.26,2.85.23,4.23.37,2.73.29,4,.46,2.61.35,3.85.55,2.45.42,3.61.64,2.26.48,3.32.73,2.06.52,3,.8,1.84.57,2.68.86,1.6.61,2.3.93a21.33,21.33,0,0,1,1.92,1,13.64,13.64,0,0,1,1.51,1A7.86,7.86,0,0,1,91.26,55,4.25,4.25,0,0,1,91.92,56,2.73,2.73,0,0,1,92.14,57.1Z" transform="translate(-0.02)"/></g><path class="cls-5" d="M74,56.28c0,1.5-6.8,2.79-16.54,3.35l-1.54.08c-1.74.09-3.56.15-5.44.19-1,0-2.1,0-3.17,0H44l-2.61-.05c-2.39-.06-4.66-.16-6.79-.29-1.26-.08-2.47-.17-3.62-.28-7.29-.65-12.08-1.76-12.08-3,0-1.1,3.73-2.1,9.61-2.77,1.16-.13,2.39-.25,3.7-.35,2.15-.18,4.5-.31,7-.4l3.63-.1c1.19,0,2.41,0,3.64,0H48c1.36,0,2.69,0,4,.07,2,0,3.86.13,5.65.24l1.44.09,2.8.22c2.12.19,4,.42,5.66.68C71.58,54.58,74,55.4,74,56.28Z" transform="translate(-0.02)"/><path class="cls-3" d="M42.78,52.66c-.83-3.49-2-6.95-3.06-10.36C37.46,35.4,35.2,28.46,32,22A53.45,53.45,0,0,0,22.11,7.8,2.6,2.6,0,0,0,17.7,9.27c-.94,6.43.53,13.2,2.31,19.57a221.48,221.48,0,0,0,8.46,24.67c.8,1.94,1.62,3.88,2.47,5.79,1.15.11,2.36.2,3.62.28,2.13.13,4.4.23,6.79.29l2.61.05A48.39,48.39,0,0,0,42.78,52.66Zm26-8.13a76,76,0,0,0-1.26-10,5.05,5.05,0,0,0-3.64-3.91,27.15,27.15,0,0,0-7.65-1,3.6,3.6,0,0,0-3.35,2.42A105.69,105.69,0,0,0,48,52.64q-.49,3.63-.74,7.29c1.08,0,2.13,0,3.17,0,1.88,0,3.7-.1,5.44-.19l1.54-.08q.73-3.32,1.68-6.59c.18-.61.36-1.23.55-1.84l.26-.83h0a.33.33,0,0,0,0,.06,10.65,10.65,0,0,0,2,2.84,11.05,11.05,0,0,0,1.88,1.6,2.63,2.63,0,0,0,3.78-.92.64.64,0,0,0,.08-.14,12.76,12.76,0,0,0,1-3.24A26.44,26.44,0,0,0,68.82,44.53Z" transform="translate(-0.02)"/><path class="cls-3" d="M39.15,52.76l-.72-2.08C35,40.86,31.6,31,26.41,22A25.43,25.43,0,0,0,25,19.6a.8.8,0,0,0-1.45.45,29.82,29.82,0,0,0,1,7.79,253.09,253.09,0,0,0,7.57,25.32c.77,2.15,1.56,4.29,2.39,6.42,2.12.13,4.4.23,6.79.29C40.72,57.47,40,55.11,39.15,52.76ZM55.84,41.81A72.22,72.22,0,0,0,52,52.71q-.95,3.56-1.57,7.19c1.88,0,3.7-.1,5.44-.19L57.68,53c.34-1.3.68-2.6,1-3.9A21.6,21.6,0,0,1,55.84,41.81Z" transform="translate(-0.02)"/><path class="cls-5" d="M59.93,50.37l-.26.83a50.23,50.23,0,0,1-3.34-6.48,19.28,19.28,0,0,1-1.54-7.58A47.17,47.17,0,0,0,59.93,50.37Z" transform="translate(-0.02)"/><g class="cls-7"><path class="cls-2" d="M79.88,0,43.66,17.54l-1.59.77a1.17,1.17,0,0,0-.52,1.58l.32.64a1.16,1.16,0,0,0,1.53.52l1.89-.88c9-4.24,36-16.89,36-17A3.46,3.46,0,0,0,79.88,0Z" transform="translate(-0.02)"/></g><g class="cls-8"><path class="cls-3" d="M45.29,20.17l-1.89.88a1.16,1.16,0,0,1-1.53-.52l-.32-.64a1.16,1.16,0,0,1,.53-1.58l1.59-.77A7.16,7.16,0,0,0,45.29,20.17ZM6.57,37.41l2.21-.27-2.21-.28A2.19,2.19,0,0,1,4.67,35l-.27-2.2L4.13,35a2.19,2.19,0,0,1-1.91,1.9L0,37.14l2.2.27a2.22,2.22,0,0,1,1.91,1.9l.27,2.21.27-2.21A2.21,2.21,0,0,1,6.57,37.41ZM81.05,26.33l2.2-.27-2.2-.28a2.19,2.19,0,0,1-1.91-1.9l-.27-2.21-.28,2.21a2.17,2.17,0,0,1-1.9,1.9l-2.2.28,2.2.27a2.17,2.17,0,0,1,1.9,1.9l.28,2.21.27-2.21A2.19,2.19,0,0,1,81.05,26.33ZM46.29,24.17l1-.13-1-.12a1,1,0,0,1-.87-.87l-.13-1-.12,1a1,1,0,0,1-.88.87l-1,.12,1,.13a1,1,0,0,1,.88.87l.12,1,.13-1A1,1,0,0,1,46.29,24.17ZM37.67,7.61l1.23-.15-1.23-.15a1.22,1.22,0,0,1-1.06-1.06L36.46,5l-.15,1.23a1.23,1.23,0,0,1-1.06,1.06L34,7.46l1.23.15a1.21,1.21,0,0,1,1.06,1.06l.15,1.23.15-1.23A1.21,1.21,0,0,1,37.67,7.61ZM65,16.29l1.22-.15L65,16A1.2,1.2,0,0,1,64,14.93l-.16-1.23-.15,1.23A1.2,1.2,0,0,1,62.58,16l-1.23.16,1.23.15a1.22,1.22,0,0,1,1.06,1.06l.15,1.23L64,17.35A1.21,1.21,0,0,1,65,16.29ZM86.9,44.11,88.13,44,86.9,43.8a1.21,1.21,0,0,1-1.06-1.06l-.15-1.22-.15,1.22a1.22,1.22,0,0,1-1.06,1.06L83.25,44l1.23.15a1.21,1.21,0,0,1,1.06,1.06l.15,1.23.15-1.23A1.21,1.21,0,0,1,86.9,44.11Z" transform="translate(-0.02)"/></g><path class="cls-5" d="M173.18,39.47h-20V92.34H134.1V39.47H114V22.82h59.15Z" transform="translate(-0.02)"/><path class="cls-5" d="M213.79,56.7A37.36,37.36,0,0,0,204,57.89a11.84,11.84,0,0,0-6.54,3.91V92.34h-18.6V40.84h17v9.8a21.75,21.75,0,0,1,6.81-8,15.2,15.2,0,0,1,8.77-2.8,14.64,14.64,0,0,1,2.33.11Z" transform="translate(-0.02)"/><path class="cls-5" d="M235.35,93.32q-7.83,0-12-4.75t-4.1-13.85V40.84h18.6V70.51a8.27,8.27,0,0,0,1.5,5.29,5.09,5.09,0,0,0,4.17,1.86,11.1,11.1,0,0,0,4.42-1,11.4,11.4,0,0,0,4.5-4.32V40.84h18.6V71.78c0,1.77.32,3,1,3.69a5.39,5.39,0,0,0,3.52,1.21V92.34c-1.89.32-3.56.57-5,.73a32.57,32.57,0,0,1-3.81.25q-9.51,0-11-7.14l-.4-1.86a20.88,20.88,0,0,1-8.62,6.9A29.25,29.25,0,0,1,235.35,93.32Z" transform="translate(-0.02)"/><path class="cls-3" d="M302.12,93.32a19.24,19.24,0,0,1-8.73-2,21.12,21.12,0,0,1-6.93-5.62,27.34,27.34,0,0,1-4.61-8.56,33.52,33.52,0,0,1-1.66-10.73A30.24,30.24,0,0,1,282,55.82a26.21,26.21,0,0,1,4.94-8.41,22.61,22.61,0,0,1,17-7.55,19.16,19.16,0,0,1,9.87,2.36,20.07,20.07,0,0,1,6.77,6.56V40.84h16.17V91.66c0,1.76.32,3,1,3.66a5.23,5.23,0,0,0,3.52,1.23v15.67A47.24,47.24,0,0,1,336,113c-1.89.16-3.56.25-5,.25a14.39,14.39,0,0,1-5-.84,13.08,13.08,0,0,1-4.06-2.31,10.42,10.42,0,0,1-2.77-3.56,10.65,10.65,0,0,1-1-4.75v-17a15.47,15.47,0,0,1-6.38,6.44A20.44,20.44,0,0,1,302.12,93.32Zm7.25-15.66q5.08,0,8.82-5.3v-9.2a13.22,13.22,0,0,0-4-5.52,8.79,8.79,0,0,0-5.58-2.11,8.08,8.08,0,0,0-3.77.88,8.73,8.73,0,0,0-2.94,2.45,12.76,12.76,0,0,0-2,3.63,12.9,12.9,0,0,0-.72,4.4A10.86,10.86,0,0,0,302,74.72,9.71,9.71,0,0,0,309.37,77.66Z" transform="translate(-0.02)"/><path class="cls-3" d="M371.54,93.32a31.72,31.72,0,0,1-12.21-2.18,26.38,26.38,0,0,1-8.81-5.88,24.52,24.52,0,0,1-5.38-8.52,29.28,29.28,0,0,1,0-20.27A24.25,24.25,0,0,1,350.52,48a26.08,26.08,0,0,1,8.81-5.88,34.59,34.59,0,0,1,24.33,0A26.1,26.1,0,0,1,392.54,48a24.08,24.08,0,0,1,5.37,8.52,29.28,29.28,0,0,1,0,20.27,24.35,24.35,0,0,1-5.37,8.52,26.39,26.39,0,0,1-8.88,5.88A31.57,31.57,0,0,1,371.54,93.32Zm-9.11-26.73q0,5.19,2.54,8.13a8.8,8.8,0,0,0,13.13,0q2.53-2.94,2.54-8.13t-2.54-8.12a8.8,8.8,0,0,0-13.13,0Q362.43,61.41,362.43,66.59Z" transform="translate(-0.02)"/></g></g></svg>