<svg id="Capa_1" data-name="Capa 1" xmlns="http://www.w3.org/2000/svg" xmlns:xlink="http://www.w3.org/1999/xlink" viewBox="0 0 315.8 394.04"><defs><style>.cls-1{fill:none;}.cls-2{fill:#334782;}.cls-3{fill:#38b6ff;}.cls-4{fill:#23315c;}.cls-5{clip-path:url(#clip-path);}</style><clipPath id="clip-path" transform="translate(-92.07 -50.01)"><rect class="cls-1" x="233.33" y="50" width="138.67" height="72.67"/></clipPath></defs><path class="cls-2" d="M348,428.2a288.64,288.64,0,0,1-194.34-2,8.5,8.5,0,0,1-5.54-8.49c1.2-19.91,4.38-83.3,6.17-119.6.77-15.6,1.29-26.2,1.29-26.2,61.61,3.21,127.09,11.48,189.94-2.67.22-.11.91,10.65,1.8,26.59,2.12,37.43,5.38,103.43,6.4,124A8.53,8.53,0,0,1,348,428.2Z" transform="translate(-92.07 -50.01)"/><path class="cls-3" d="M347.36,295.79a399.73,399.73,0,0,1-193,2.28c.76-15.6,1.28-26.2,1.28-26.2,61.62,3.21,127.09,11.48,190-2.67C345.78,269.09,346.47,279.85,347.36,295.79Z" transform="translate(-92.07 -50.01)"/><path class="cls-4" d="M94.43,253.69v-8.3s81-29.4,156.72-29.4c78.44,0,156.72,29.77,156.72,29.77v7.93c0,20.82-70.17,37.69-156.72,37.69S94.43,274.51,94.43,253.69Z" transform="translate(-92.07 -50.01)"/><path class="cls-2" d="M407.87,245.76a9,9,0,0,1-.19,1.85,9.94,9.94,0,0,1-.56,1.84,13.9,13.9,0,0,1-.94,1.84,16.37,16.37,0,0,1-1.32,1.82,21.46,21.46,0,0,1-1.68,1.81c-.63.6-1.31,1.19-2.05,1.78s-1.56,1.17-2.42,1.76-1.79,1.15-2.77,1.72-2,1.14-3.12,1.69-2.24,1.11-3.46,1.66-2.46,1.08-3.79,1.61-2.68,1.05-4.11,1.56-2.9,1-4.43,1.51-3.1,1-4.73,1.46-3.31.94-5,1.4-3.5.9-5.31,1.34-3.67.86-5.57,1.28-3.84.82-5.83,1.21-4,.77-6.06,1.13-4.16.73-6.29,1.07-4.3.67-6.5,1-4.43.62-6.69.91-4.56.57-6.87.83-4.67.51-7,.75-4.77.46-7.18.67-4.85.4-7.3.58-4.93.34-7.42.49-5,.29-7.51.41-5,.22-7.57.31-5.09.17-7.64.23-5.11.1-7.67.14-5.13,0-7.69,0-5.13,0-7.69,0-5.12-.08-7.67-.14-5.1-.13-7.63-.23-5.07-.19-7.58-.31-5-.26-7.51-.41-5-.31-7.41-.49-4.89-.37-7.31-.58-4.8-.43-7.17-.67-4.72-.48-7-.75-4.61-.54-6.88-.83-4.49-.59-6.69-.91-4.37-.65-6.5-1-4.23-.7-6.29-1.07-4.08-.74-6.06-1.13-3.93-.8-5.83-1.21-3.75-.84-5.57-1.28-3.58-.88-5.3-1.34-3.4-.92-5-1.4-3.21-1-4.74-1.46-3-1-4.43-1.51-2.79-1-4.12-1.56-2.57-1.07-3.79-1.61-2.36-1.1-3.46-1.66-2.13-1.12-3.11-1.69-1.91-1.14-2.77-1.72-1.67-1.17-2.41-1.76a26.48,26.48,0,0,1-2.05-1.78,21.63,21.63,0,0,1-1.69-1.81,15.07,15.07,0,0,1-1.31-1.82,12.87,12.87,0,0,1-.95-1.84,9.94,9.94,0,0,1-.56-1.84,9.1,9.1,0,0,1,0-3.7,10,10,0,0,1,.56-1.85,14,14,0,0,1,.95-1.84,15.9,15.9,0,0,1,1.31-1.82,23.23,23.23,0,0,1,1.69-1.8,26.48,26.48,0,0,1,2.05-1.78c.74-.6,1.54-1.18,2.41-1.76s1.79-1.16,2.77-1.73,2-1.13,3.11-1.69,2.25-1.11,3.46-1.65,2.48-1.08,3.79-1.61,2.7-1,4.12-1.56,2.9-1,4.43-1.52,3.11-1,4.74-1.46,3.3-.94,5-1.4,3.49-.9,5.3-1.34,3.67-.86,5.57-1.27,3.84-.82,5.83-1.21,4-.77,6.06-1.14,4.16-.72,6.29-1.06,4.3-.68,6.5-1,4.43-.62,6.69-.91,4.55-.57,6.88-.84,4.66-.51,7-.75,4.76-.46,7.17-.66,4.85-.41,7.31-.58,4.92-.35,7.41-.5,5-.28,7.51-.4,5-.23,7.58-.32,5.07-.16,7.63-.23,5.11-.1,7.67-.13,5.12-.05,7.69-.05,5.13,0,7.69.05,5.12.07,7.67.13,5.1.14,7.64.23,5.06.2,7.57.32,5,.25,7.51.4,5,.32,7.42.5,4.88.37,7.3.58,4.81.43,7.18.66,4.71.49,7,.75,4.61.54,6.87.84,4.49.59,6.69.91,4.37.64,6.5,1,4.23.69,6.29,1.06,4.08.75,6.06,1.14,3.93.79,5.83,1.21,3.76.84,5.57,1.27,3.58.88,5.31,1.34,3.39.93,5,1.4,3.2,1,4.73,1.46,3,1,4.43,1.52,2.8,1,4.11,1.56,2.59,1.06,3.79,1.61,2.37,1.09,3.46,1.65,2.14,1.12,3.12,1.69,1.91,1.15,2.77,1.73,1.67,1.16,2.42,1.76,1.42,1.18,2.05,1.78a23,23,0,0,1,1.68,1.8,17.35,17.35,0,0,1,1.32,1.82,15.25,15.25,0,0,1,.94,1.84,10,10,0,0,1,.56,1.85A8.94,8.94,0,0,1,407.87,245.76Z" transform="translate(-92.07 -50.01)"/><path class="cls-4" d="M345.64,242.93c0,5.13-23.34,9.54-56.71,11.47-1.74.11-3.5.2-5.28.29-6,.28-12.2.5-18.65.62q-5.34.12-10.86.13h-3q-4.28,0-8.45,0c-3,0-6-.09-8.94-.16-8.18-.21-16-.55-23.28-1-4.31-.27-8.46-.59-12.39-.94-25-2.25-41.42-6.06-41.42-10.36,0-3.79,12.77-7.2,32.94-9.5,4-.44,8.2-.85,12.69-1.21,7.37-.59,15.4-1.05,23.91-1.36q6.07-.23,12.45-.33c4.08-.08,8.26-.11,12.49-.11,1.84,0,3.67,0,5.5,0,4.67,0,9.25.12,13.71.24,6.75.18,13.25.46,19.39.83l4.94.31c3.31.23,6.51.49,9.58.76,7.27.65,13.81,1.45,19.43,2.34C337.39,237.09,345.64,239.89,345.64,242.93Z" transform="translate(-92.07 -50.01)"/><path class="cls-3" d="M238.66,230.53c-2.82-12-6.68-23.82-10.49-35.53-7.73-23.67-15.5-47.43-26.58-69.72-8.81-17.73-19.85-34.59-33.78-48.56a8.9,8.9,0,0,0-15.1,5c-3.24,22,1.81,45.26,7.88,67.09a756.36,756.36,0,0,0,29,84.57q4.09,10,8.48,19.86c3.93.35,8.07.67,12.39.94,7.3.46,15.1.8,23.28,1,2.93.07,5.92.12,8.94.16A164,164,0,0,0,238.66,230.53Zm89.27-27.9a259.08,259.08,0,0,0-4.32-34.2A17.32,17.32,0,0,0,311.14,155a95.26,95.26,0,0,0-26.24-3.4,12.37,12.37,0,0,0-11.48,8.31,365.2,365.2,0,0,0-16.77,70.51q-1.69,12.47-2.51,25,5.52,0,10.86-.13c6.45-.12,12.69-.34,18.65-.62,1.78-.09,3.54-.18,5.28-.29q2.51-11.39,5.76-22.58c.61-2.11,1.23-4.21,1.88-6.3.29-1,.59-1.9.89-2.85h0l.09.17a37.14,37.14,0,0,0,6.72,9.75,37.63,37.63,0,0,0,6.47,5.48,9,9,0,0,0,13-3.14c.09-.16.16-.32.24-.49a43.81,43.81,0,0,0,3.38-11.12A91.65,91.65,0,0,0,327.93,202.63Z" transform="translate(-92.07 -50.01)"/><path class="cls-3" d="M226.21,230.86q-1.22-3.57-2.45-7.14c-11.65-33.65-23.4-67.53-41.21-98.36a88.64,88.64,0,0,0-4.7-8.16,2.75,2.75,0,0,0-5,1.51c-.33,8.77,1.51,18.72,3.46,26.74a870.08,870.08,0,0,0,25.95,86.77q3.94,11.07,8.19,22c7.29.46,15.09.8,23.28,1C231.6,247,229,238.92,226.21,230.86Zm57.22-37.53a251.41,251.41,0,0,0-13.07,37.35q-3.24,12.19-5.36,24.63c6.45-.12,12.69-.34,18.65-.62q3-11.59,6.1-23.18,1.75-6.69,3.53-13.37A74.42,74.42,0,0,1,283.43,193.33Z" transform="translate(-92.07 -50.01)"/><path class="cls-4" d="M297.46,222.67c-.3,1-.6,1.9-.89,2.85a167.86,167.86,0,0,1-11.44-22.23c-3.32-8.26-5.5-17.08-5.3-26A162.14,162.14,0,0,0,297.46,222.67Z" transform="translate(-92.07 -50.01)"/><g class="cls-5"><path class="cls-2" d="M365.85,50,241.7,110.14l-5.45,2.64a4,4,0,0,0-1.82,5.4l1.11,2.18a4,4,0,0,0,5.26,1.81l6.48-3c31-14.53,123.31-57.87,123.29-58.09A11.88,11.88,0,0,0,365.85,50Z" transform="translate(-92.07 -50.01)"/></g><path class="cls-3" d="M247.28,119.13l-6.48,3a4,4,0,0,1-5.25-1.81l-1.11-2.18a4,4,0,0,1,1.82-5.4l5.44-2.64A24.79,24.79,0,0,0,247.28,119.13ZM114.56,178.24l7.55-.93-7.55-.94a7.52,7.52,0,0,1-6.53-6.53l-.94-7.55-.93,7.55a7.52,7.52,0,0,1-6.53,6.53l-7.56.94,7.56.93a7.53,7.53,0,0,1,6.53,6.53l.93,7.56.94-7.56A7.53,7.53,0,0,1,114.56,178.24Zm255.28-38,7.56-.94-7.56-.94a7.5,7.5,0,0,1-6.52-6.53l-.94-7.55-.94,7.55a7.51,7.51,0,0,1-6.52,6.53l-7.56.94,7.56.94a7.49,7.49,0,0,1,6.52,6.52l.94,7.55.94-7.55A7.49,7.49,0,0,1,369.84,140.26Zm-119.13-7.41,3.47-.43-3.47-.43a3.44,3.44,0,0,1-3-3l-.43-3.46-.43,3.46a3.44,3.44,0,0,1-3,3l-3.46.43,3.46.43a3.45,3.45,0,0,1,3,3l.43,3.48.43-3.48A3.46,3.46,0,0,1,250.71,132.85ZM221.16,76.09l4.2-.52-4.2-.52a4.18,4.18,0,0,1-3.63-3.63L217,67.21l-.53,4.21a4.16,4.16,0,0,1-3.63,3.63l-4.2.52,4.2.52a4.15,4.15,0,0,1,3.63,3.62l.53,4.21.52-4.21A4.16,4.16,0,0,1,221.16,76.09Zm93.69,29.75,4.21-.52-4.21-.52a4.17,4.17,0,0,1-3.63-3.63L310.7,97l-.52,4.21a4.16,4.16,0,0,1-3.63,3.63l-4.21.52,4.21.52a4.17,4.17,0,0,1,3.63,3.63l.52,4.21.52-4.21A4.17,4.17,0,0,1,314.85,105.84Zm75.06,95.36,4.21-.52-4.21-.52a4.18,4.18,0,0,1-3.63-3.63l-.52-4.21-.52,4.21a4.17,4.17,0,0,1-3.63,3.63l-4.2.52,4.2.52a4.16,4.16,0,0,1,3.63,3.63l.52,4.21.52-4.21A4.17,4.17,0,0,1,389.91,201.2Z" transform="translate(-92.07 -50.01)"/></svg>