<svg id="Capa_1" data-name="Capa 1" xmlns="http://www.w3.org/2000/svg" viewBox="0 0 354 181.6161"><path d="M269.1145,351.2421V335.2843h3.8548l2.3173,10.8863,2.2955-10.8863h3.8658v15.9578h-2.39V338.68L276.52,351.2421h-2.4877L271.5152,338.68v12.5618Zm14.8863-13.1266v-2.8312h2.4515v2.8312Zm0,13.1266V339.6834h2.4515v11.5587Zm13.3741,0H294.92v-5.9a12.8913,12.8913,0,0,0-.1378-2.363,1.6239,1.6239,0,0,0-.515-.9028,1.3067,1.3067,0,0,0-.8558-.3158,1.7309,1.7309,0,0,0-1.1168.4086,2.1693,2.1693,0,0,0-.7,1.1258,11.8736,11.8736,0,0,0-.2031,2.7123v5.235H288.94V339.6834h2.2738v1.698a4.52,4.52,0,0,1,1.3635-1.4714,3.0386,3.0386,0,0,1,1.6826-.49,2.885,2.885,0,0,1,1.8133.5722,2.932,2.932,0,0,1,1.0189,1.4713,9.1064,9.1064,0,0,1,.2829,2.5934v7.1856Zm2.4877-13.1266v-2.8312h2.4515v2.8312Zm0,13.1266V339.6834h2.4515v11.5587Zm4.0978-3.2993,2.4551-.4682a1.8875,1.8875,0,0,0,1.9764,1.8206,2.0936,2.0936,0,0,0,1.3163-.3492,1.1084,1.1084,0,0,0,.4352-.9029.8721.8721,0,0,0-.1886-.5982,1.732,1.732,0,0,0-.7978-.3826,10.6993,10.6993,0,0,1-3.8367-1.5568,3.2613,3.2613,0,0,1-1.0191-2.5376,3.4352,3.4352,0,0,1,.9973-2.5786,4.0073,4.0073,0,0,1,2.9012-.97,4.4866,4.4866,0,0,1,2.7633.7246,3.9711,3.9711,0,0,1,1.3272,2.3369l-2.3064.5314a1.6091,1.6091,0,0,0-1.7406-1.3933,2.3349,2.3349,0,0,0-1.2874.2674.8122.8122,0,0,0-.3808.6911.7494.7494,0,0,0,.3518.6317,9.4494,9.4494,0,0,0,2.1758.7839,5.8524,5.8524,0,0,1,2.7851,1.4267,3.287,3.287,0,0,1,.7216,2.2293,3.6857,3.6857,0,0,1-1.12,2.7643,4.2484,4.2484,0,0,1-3.0969,1.0886,4.5567,4.5567,0,0,1-2.9338-.9066,4.4048,4.4048,0,0,1-1.4977-2.6528Zm15.0133-8.2594v2.4374h-1.6681v4.659a10.3453,10.3453,0,0,0,.0725,1.75.5862.5862,0,0,0,.6055.4384,2.6608,2.6608,0,0,0,.9791-.2935l.2105,2.3705a3.992,3.992,0,0,1-1.922.457,2.3,2.3,0,0,1-1.4978-.457,2.2485,2.2485,0,0,1-.7542-1.3153,13.6935,13.6935,0,0,1-.1487-2.5711v-5.038h-1.1279v-2.4374h1.1279v-2.3l2.4551-1.7834v4.0832Zm7.075,7.88,2.4334.5091a4.9635,4.9635,0,0,1-1.5195,2.5859,4.2208,4.2208,0,0,1-5.6754-.561,7.1019,7.1019,0,0,1-1.3163-4.57,7.4494,7.4494,0,0,1,1.3273-4.6369A3.5064,3.5064,0,0,1,324.21,339.42a3.6764,3.6764,0,0,1,3.1151,1.5048,8.3457,8.3457,0,0,1,1.2947,5.0715l-.0109.3493H322.48a3.5159,3.5159,0,0,0,.5984,2.1215,1.718,1.718,0,0,0,1.3962.75q1.18,0,1.5738-1.6534Zm.1378-3.0912a3.4265,3.4265,0,0,0-.562-2.0323,1.537,1.537,0,0,0-2.5712.03,3.2032,3.2032,0,0,0-.533,2.0026Zm6.7669,6.7695h-2.4551V339.6834h2.2738v1.6422a5.0013,5.0013,0,0,1,1.048-1.5307,1.65,1.65,0,0,1,1.0661-.3753,2.63,2.63,0,0,1,1.6066.58l-.7652,2.664a1.8639,1.8639,0,0,0-1.15-.4979,1.2174,1.2174,0,0,0-.8957.3864,2.5539,2.5539,0,0,0-.5585,1.397,26.8327,26.8327,0,0,0-.17,3.7228v3.5706Zm4.591-13.1266v-2.8312h2.4515v2.8312Zm0,13.1266V339.6834h2.4515v11.5587Zm4.3843-5.9447a7.1547,7.1547,0,0,1,.66-3.0912,4.917,4.917,0,0,1,1.7225-2.0881,4.2619,4.2619,0,0,1,2.39-.6985,4.0794,4.0794,0,0,1,3.5068,1.7909,7.0462,7.0462,0,0,1,1.2728,4.1873,7.5979,7.5979,0,0,1-.6636,3.2212,5.0561,5.0561,0,0,1-1.7407,2.1587,4.1616,4.1616,0,0,1-2.3644.7245,4.293,4.293,0,0,1-3.4233-1.6088,6.93,6.93,0,0,1-1.36-4.596Zm2.5094.1635a4.4049,4.4049,0,0,0,.6673,2.6528,1.9694,1.9694,0,0,0,1.6174.8955,1.9181,1.9181,0,0,0,1.5811-.9029,4.502,4.502,0,0,0,.66-2.6677,4.3727,4.3727,0,0,0-.6709-2.6231,1.8614,1.8614,0,0,0-3.1912,0,4.4453,4.4453,0,0,0-.6637,2.6454Zm22.4147,5.7812h-2.2846v-1.698a4.0747,4.0747,0,0,1-1.3272,1.4676,2.87,2.87,0,0,1-1.57.49,3.3116,3.3116,0,0,1-2.7053-1.5828,7.5929,7.5929,0,0,1-1.1532-4.5216,7.4145,7.4145,0,0,1,1.1278-4.47,3.363,3.363,0,0,1,2.7706-1.5085,2.7552,2.7552,0,0,1,1.4505.405,4.1115,4.1115,0,0,1,1.24,1.2075v-5.7478h2.4513v15.9578Zm-6.531-6.03a7.7608,7.7608,0,0,0,.2574,2.3333,2.45,2.45,0,0,0,.7434,1.1554,1.7087,1.7087,0,0,0,1.0916.3865,1.6874,1.6874,0,0,0,1.4-.8917,4.8819,4.8819,0,0,0,.5947-2.69,5.4021,5.4021,0,0,0-.5767-2.8683,1.6569,1.6569,0,0,0-2.9155-.0149,4.5488,4.5488,0,0,0-.5947,2.59Zm14.31,2.3518,2.4333.5091a4.9621,4.9621,0,0,1-1.5193,2.5859,4.2208,4.2208,0,0,1-5.6754-.561,7.1019,7.1019,0,0,1-1.3164-4.57,7.4494,7.4494,0,0,1,1.3273-4.6369,3.5066,3.5066,0,0,1,2.912-1.4713,3.6767,3.6767,0,0,1,3.1151,1.5048,8.3464,8.3464,0,0,1,1.2946,5.0715l-.0109.3493h-6.1286a3.5159,3.5159,0,0,0,.5983,2.1215,1.7182,1.7182,0,0,0,1.3962.75q1.18,0,1.5738-1.6534Zm.1379-3.0912a3.4264,3.4264,0,0,0-.5622-2.0323,1.5369,1.5369,0,0,0-2.5711.03,3.2032,3.2032,0,0,0-.5329,2.0026Zm-94.7611,29.8013H277.205l-1.117-3.6262h-5.0986l-1.0517,3.6262h-2.7416l4.9718-15.9577h2.7307l5.11,15.9577Zm-4.747-6.3125-1.7552-5.9224-1.73,5.9224Zm5.8639,7.0742,2.8032.4236a1.2907,1.2907,0,0,0,.388.899,1.6055,1.6055,0,0,0,1.0263.2676,2.7426,2.7426,0,0,0,1.3054-.2712,1.2832,1.2832,0,0,0,.5441-.6539,4.6886,4.6886,0,0,0,.1921-1.6125v-1.6869a4.3,4.3,0,0,1-1.2439,1.4045,2.6709,2.6709,0,0,1-1.53.4681,3.1275,3.1275,0,0,1-2.5929-1.4267,7.2469,7.2469,0,0,1-1.2112-4.4176,7.3347,7.3347,0,0,1,1.1423-4.47,3.3856,3.3856,0,0,1,2.7669-1.5084,2.7689,2.7689,0,0,1,1.5666.4681,4.1908,4.1908,0,0,1,1.262,1.4156v-1.62h2.2919v10.3734A10.5714,10.5714,0,0,1,289.39,376.7a3.3925,3.3925,0,0,1-1.3744,1.6943,4.9363,4.9363,0,0,1-2.5747.5721,5.9168,5.9168,0,0,1-2.4333-.4161,3.0269,3.0269,0,0,1-1.4-1.2335,3.6771,3.6771,0,0,1-.4823-1.8986v-.3827Zm2.19-6.7806a4.8991,4.8991,0,0,0,.5766,2.6973,1.6713,1.6713,0,0,0,1.3962.8509,1.8258,1.8258,0,0,0,1.5086-.8583,4.4313,4.4313,0,0,0,.6273-2.6156,4.7493,4.7493,0,0,0-.5983-2.6714,1.7705,1.7705,0,0,0-1.4832-.8657,1.71,1.71,0,0,0-1.4506.8508,4.7,4.7,0,0,0-.5766,2.612Zm11.2926,6.0189h-2.455V362.7153h2.2737v1.6422a5.0051,5.0051,0,0,1,1.048-1.5308,1.65,1.65,0,0,1,1.0662-.3752,2.63,2.63,0,0,1,1.6065.58l-.7652,2.6639a1.8639,1.8639,0,0,0-1.15-.4979,1.2176,1.2176,0,0,0-.8957.3865,2.5539,2.5539,0,0,0-.5584,1.3969,26.8134,26.8134,0,0,0-.1705,3.7229v3.5705Zm4.591-13.1266v-2.8311h2.4515v2.8311Zm0,13.1266V362.7153h2.4515v11.5586Zm13.0224-8.1405-2.4115.5425q-.2665-1.8168-1.6682-1.8168a1.6946,1.6946,0,0,0-1.4542.7839,4.7312,4.7312,0,0,0-.5548,2.6454,5.58,5.58,0,0,0,.5548,2.9054,1.6855,1.6855,0,0,0,1.476.8472,1.4711,1.4711,0,0,0,1.135-.4831,3.293,3.293,0,0,0,.6383-1.7127l2.4115.509q-.74,4.18-4.2791,4.18a3.6792,3.6792,0,0,1-3.3581-1.7611,7.9132,7.9132,0,0,1-1.0951-4.2467,7.13,7.13,0,0,1,1.2366-4.5217,3.96,3.96,0,0,1,3.2456-1.553,3.9044,3.9044,0,0,1,2.6509.8842,5.0834,5.0834,0,0,1,1.4723,2.7977Zm7.9345,8.1405v-1.7313a3.9078,3.9078,0,0,1-1.3381,1.4638,3.1576,3.1576,0,0,1-1.73.5276,2.8564,2.8564,0,0,1-1.6391-.49,2.8986,2.8986,0,0,1-1.077-1.3933,7.5094,7.5094,0,0,1-.3554-2.6231v-7.3119h2.455v5.3093a22.4287,22.4287,0,0,0,.1088,2.8906,1.607,1.607,0,0,0,.4969.9548,1.3521,1.3521,0,0,0,.9247.3344,1.7207,1.7207,0,0,0,1.135-.4384,2.0616,2.0616,0,0,0,.6855-1.1332,17.1306,17.1306,0,0,0,.1631-3.0429v-4.8746H322.43v11.5586Zm4.8268,0V358.3162h2.4514v15.9577Zm9.1892-11.5586v2.4373h-1.6681v4.6591a10.347,10.347,0,0,0,.0725,1.75.5864.5864,0,0,0,.6056.4384,2.6613,2.6613,0,0,0,.9791-.2935l.21,2.37a3.992,3.992,0,0,1-1.922.457,2.3,2.3,0,0,1-1.4977-.457,2.2491,2.2491,0,0,1-.7543-1.3152,13.7039,13.7039,0,0,1-.1487-2.5711v-5.0381h-1.1278v-2.4373h1.1278v-2.3l2.4551-1.7834v4.0833Zm7.7858,11.5586v-1.7313a3.9084,3.9084,0,0,1-1.338,1.4638,3.1581,3.1581,0,0,1-1.73.5276,2.8565,2.8565,0,0,1-1.6392-.49,2.8986,2.8986,0,0,1-1.077-1.3933,7.5118,7.5118,0,0,1-.3554-2.6231v-7.3119h2.4551v5.3093a22.4092,22.4092,0,0,0,.1088,2.8906,1.6074,1.6074,0,0,0,.4967.9548,1.3526,1.3526,0,0,0,.9248.3344,1.7213,1.7213,0,0,0,1.1351-.4384,2.0613,2.0613,0,0,0,.6853-1.1332,17.1133,17.1133,0,0,0,.1633-3.0429v-4.8746h2.4441v11.5586Zm7.1731,0h-2.4551V362.7153h2.2737v1.6422a5.0032,5.0032,0,0,1,1.0481-1.5308,1.65,1.65,0,0,1,1.0661-.3752,2.63,2.63,0,0,1,1.6066.58l-.7653,2.6639a1.8634,1.8634,0,0,0-1.1495-.4979,1.2174,1.2174,0,0,0-.8957.3865,2.5539,2.5539,0,0,0-.5585,1.3969,26.8345,26.8345,0,0,0-.17,3.7229v3.5705Zm6.415-8.0327-2.2193-.5016a4.4563,4.4563,0,0,1,1.3346-2.519,4.0888,4.0888,0,0,1,2.6726-.7691,5.0439,5.0439,0,0,1,2.3681.4458,2.615,2.615,0,0,1,1.1676,1.215,7.5151,7.5151,0,0,1,.3518,2.7939l-.0218,3.5706a15.8719,15.8719,0,0,0,.1161,2.2367,8.0476,8.0476,0,0,0,.4351,1.56h-2.4224l-.3192-1.2632a4.4946,4.4946,0,0,1-1.3417,1.1443,3.22,3.22,0,0,1-1.5267.379,2.87,2.87,0,0,1-2.2085-.9288,3.5071,3.5071,0,0,1-.8595-2.4782,3.939,3.939,0,0,1,.3482-1.7091,2.9167,2.9167,0,0,1,.99-1.1629,6.421,6.421,0,0,1,2.038-.7729,11.5094,11.5094,0,0,0,2.3717-.75,3.6977,3.6977,0,0,0-.1341-1.26,1.0352,1.0352,0,0,0-.49-.4867,2.1025,2.1025,0,0,0-1.0009-.1932,1.6135,1.6135,0,0,0-1.0372.3047,2.2284,2.2284,0,0,0-.6129,1.1443Zm3.2747,2.4819a12.2849,12.2849,0,0,1-1.4578.457,3.3626,3.3626,0,0,0-1.4868.6762,1.3343,1.3343,0,0,0-.3482.9549,1.664,1.664,0,0,0,.3844,1.1183,1.234,1.234,0,0,0,.9755.45,1.75,1.75,0,0,0,1.03-.3641,1.9659,1.9659,0,0,0,.7072-.8658,5.6878,5.6878,0,0,0,.1958-1.8168v-.6093Zm4.7579,2.4931h2.4441v2.1883a6.8246,6.8246,0,0,1-.4243,2.7643,3.3413,3.3413,0,0,1-1.7443,1.6645l-.4787-1.2632a2.14,2.14,0,0,0,1.0408-.8211,2.9418,2.9418,0,0,0,.3409-1.4751h-1.1785v-3.0577Zm12.899-3.4777v-2.69h5.5556v6.3571a6.8043,6.8043,0,0,1-2.3789,1.7426,7.154,7.154,0,0,1-3.0933.7282,5.9068,5.9068,0,0,1-3.3326-.9512,6.4119,6.4119,0,0,1-2.292-2.8534,10.9283,10.9283,0,0,1-.8449-4.466,10.8,10.8,0,0,1,.8558-4.5067,6.5467,6.5467,0,0,1,2.2194-2.7977,5.69,5.69,0,0,1,3.2673-.9252,5.3987,5.3987,0,0,1,3.6627,1.1927,5.7,5.7,0,0,1,1.766,3.5l-2.5493.5982a3.3751,3.3751,0,0,0-1.0517-1.8837,2.7174,2.7174,0,0,0-1.8277-.6539,3.2213,3.2213,0,0,0-2.6653,1.3115,6.4609,6.4609,0,0,0-1.0191,4.0015,7.3363,7.3363,0,0,0,1.1025,4.3842,3.0059,3.0059,0,0,0,2.56,1.2967,3.8638,3.8638,0,0,0,1.57-.3642,5.0113,5.0113,0,0,0,1.4505-.9957v-2.0249Zm9.7513-2.1661-2.2194-.5015a4.4568,4.4568,0,0,1,1.3346-2.5191,4.0889,4.0889,0,0,1,2.6727-.7691,5.042,5.042,0,0,1,2.368.4459,2.6146,2.6146,0,0,1,1.1677,1.2149,7.5159,7.5159,0,0,1,.3517,2.794l-.0217,3.57a15.89,15.89,0,0,0,.116,2.2367,8.0575,8.0575,0,0,0,.4351,1.5605H390.011l-.3191-1.2633a4.498,4.498,0,0,1-1.3418,1.1444,3.22,3.22,0,0,1-1.5267.3789,2.87,2.87,0,0,1-2.2085-.9288,3.5069,3.5069,0,0,1-.8594-2.4782,3.9375,3.9375,0,0,1,.3482-1.7091,2.9165,2.9165,0,0,1,.99-1.1629,6.4206,6.4206,0,0,1,2.0381-.7728,11.5165,11.5165,0,0,0,2.3717-.75,3.6969,3.6969,0,0,0-.1342-1.26,1.0347,1.0347,0,0,0-.49-.4867,2.102,2.102,0,0,0-1.0009-.1932,1.6132,1.6132,0,0,0-1.0371.3047,2.2286,2.2286,0,0,0-.6129,1.1443Zm3.2747,2.4819a12.2628,12.2628,0,0,1-1.4579.457,3.3638,3.3638,0,0,0-1.4868.6762,1.3347,1.3347,0,0,0-.3482.9549,1.6634,1.6634,0,0,0,.3845,1.1183,1.2338,1.2338,0,0,0,.9754.45,1.75,1.75,0,0,0,1.03-.3641,1.9662,1.9662,0,0,0,.7072-.8657,5.6841,5.6841,0,0,0,.1959-1.8168v-.6094Zm13.2362,5.5509h-2.455v-5.9a12.8913,12.8913,0,0,0-.1378-2.363,1.6245,1.6245,0,0,0-.515-.9029,1.3071,1.3071,0,0,0-.8558-.3158,1.7311,1.7311,0,0,0-1.1169.4087,2.1688,2.1688,0,0,0-.7,1.1258,11.8672,11.8672,0,0,0-.2031,2.7122v5.2351h-2.4514V362.0465h2.2737v1.6979a4.5214,4.5214,0,0,1,1.3635-1.4713,3.0387,3.0387,0,0,1,1.6827-.49,2.8847,2.8847,0,0,1,1.8132.5722,2.9316,2.9316,0,0,1,1.019,1.4713,9.1063,9.1063,0,0,1,.2828,2.5933v7.1857Zm4.3119-8.0328-2.2194-.5015a4.4574,4.4574,0,0,1,1.3345-2.5191,4.0891,4.0891,0,0,1,2.6727-.7691,5.0417,5.0417,0,0,1,2.368.4459,2.6141,2.6141,0,0,1,1.1677,1.2149,7.5154,7.5154,0,0,1,.3518,2.794l-.0218,3.57a15.9052,15.9052,0,0,0,.116,2.2367,8.0581,8.0581,0,0,0,.4352,1.5605h-2.4224l-.3192-1.2633a4.4977,4.4977,0,0,1-1.3417,1.1444,3.2207,3.2207,0,0,1-1.5267.3789,2.8693,2.8693,0,0,1-2.2085-.9288,3.5065,3.5065,0,0,1-.86-2.4782,3.939,3.939,0,0,1,.3482-1.7091,2.9167,2.9167,0,0,1,.99-1.1629,6.4189,6.4189,0,0,1,2.038-.7728,11.5165,11.5165,0,0,0,2.3717-.75,3.6942,3.6942,0,0,0-.1342-1.26,1.0349,1.0349,0,0,0-.4895-.4867,2.1022,2.1022,0,0,0-1.0009-.1932,1.6135,1.6135,0,0,0-1.0372.3047,2.2278,2.2278,0,0,0-.6128,1.1443Zm3.2746,2.4819a12.266,12.266,0,0,1-1.4578.457,3.3637,3.3637,0,0,0-1.4869.6762,1.3346,1.3346,0,0,0-.3481.9549,1.6629,1.6629,0,0,0,.3845,1.1183,1.2338,1.2338,0,0,0,.9754.45,1.7505,1.7505,0,0,0,1.03-.3641,1.9662,1.9662,0,0,0,.7072-.8657,5.6878,5.6878,0,0,0,.1958-1.8168v-.6094Zm13.3088,5.5509H421.35v-1.698a4.0755,4.0755,0,0,1-1.3272,1.4676,2.87,2.87,0,0,1-1.57.49,3.3119,3.3119,0,0,1-2.7053-1.5827,7.5931,7.5931,0,0,1-1.1532-4.5217,7.4134,7.4134,0,0,1,1.1279-4.47,3.3628,3.3628,0,0,1,2.7705-1.5085,2.7553,2.7553,0,0,1,1.4506.405,4.11,4.11,0,0,1,1.24,1.2075v-5.7478h2.4514v15.9578Zm-6.5311-6.03a7.7623,7.7623,0,0,0,.2575,2.3332,2.4492,2.4492,0,0,0,.7434,1.1555,1.7088,1.7088,0,0,0,1.0916.3864,1.6872,1.6872,0,0,0,1.4-.8917,4.8805,4.8805,0,0,0,.5948-2.69A5.4023,5.4023,0,0,0,420.6141,365a1.6569,1.6569,0,0,0-2.9156-.0148,4.5494,4.5494,0,0,0-.5947,2.59Zm14.31,2.3518,2.4332.509a4.9615,4.9615,0,0,1-1.5194,2.5859,4.2207,4.2207,0,0,1-5.6753-.561,7.1018,7.1018,0,0,1-1.3164-4.57,7.45,7.45,0,0,1,1.3273-4.6369,3.5065,3.5065,0,0,1,2.912-1.4713,3.6767,3.6767,0,0,1,3.1151,1.5048,8.3464,8.3464,0,0,1,1.2946,5.0715l-.011.3493h-6.1285a3.5143,3.5143,0,0,0,.5984,2.1214,1.7174,1.7174,0,0,0,1.3961.7506q1.1805,0,1.5739-1.6534Zm.1378-3.0912a3.4258,3.4258,0,0,0-.5622-2.0324,1.5369,1.5369,0,0,0-2.5711.03,3.2037,3.2037,0,0,0-.533,2.0027Zm6.7668,6.77h-2.4551V362.0465h2.2738v1.6422a5.0013,5.0013,0,0,1,1.048-1.5307,1.65,1.65,0,0,1,1.0662-.3753,2.63,2.63,0,0,1,1.6065.58l-.7652,2.664a1.8637,1.8637,0,0,0-1.15-.4979,1.2174,1.2174,0,0,0-.8957.3864,2.5547,2.5547,0,0,0-.5584,1.397,26.8106,26.8106,0,0,0-.1705,3.7228v3.5706Zm4.5911,0V362.0465h2.4514v11.5587Zm-.0146-12.9743,1.2-3.2547h2.7524l-2.4006,3.2547Zm6.8,4.9415-2.2194-.5015a4.4568,4.4568,0,0,1,1.3346-2.5191,4.0886,4.0886,0,0,1,2.6726-.7691,5.0417,5.0417,0,0,1,2.368.4459,2.6141,2.6141,0,0,1,1.1677,1.2149,7.5132,7.5132,0,0,1,.3518,2.794l-.0218,3.57a15.8709,15.8709,0,0,0,.1161,2.2367,8.05,8.05,0,0,0,.4351,1.5605h-2.4224l-.3191-1.2633a4.498,4.498,0,0,1-1.3418,1.1444,3.22,3.22,0,0,1-1.5267.3789,2.87,2.87,0,0,1-2.2085-.9288,3.5069,3.5069,0,0,1-.8594-2.4782,3.94,3.94,0,0,1,.3481-1.7091,2.9175,2.9175,0,0,1,.99-1.1629,6.42,6.42,0,0,1,2.038-.7728,11.5143,11.5143,0,0,0,2.3717-.75,3.6942,3.6942,0,0,0-.1342-1.26,1.0345,1.0345,0,0,0-.49-.4867,2.1022,2.1022,0,0,0-1.0009-.1932,1.6128,1.6128,0,0,0-1.0371.3047,2.2286,2.2286,0,0,0-.6129,1.1443Zm3.2746,2.4819a12.26,12.26,0,0,1-1.4578.457,3.3632,3.3632,0,0,0-1.4868.6762,1.3346,1.3346,0,0,0-.3481.9549,1.6628,1.6628,0,0,0,.3844,1.1183,1.2337,1.2337,0,0,0,.9754.45,1.7508,1.7508,0,0,0,1.03-.3641,1.9666,1.9666,0,0,0,.7071-.8657,5.6878,5.6878,0,0,0,.1958-1.8168v-.6094Zm4.7579,2.4931h2.4442v2.1883a6.8264,6.8264,0,0,1-.4243,2.7643,3.3416,3.3416,0,0,1-1.7444,1.6645l-.4786-1.2632a2.14,2.14,0,0,0,1.0407-.8211,2.9414,2.9414,0,0,0,.3409-1.475h-1.1785v-3.0578ZM280.6609,395.3h-2.8032l-1.1169-3.6263h-5.0987L270.59,395.3h-2.7415l4.9718-15.9578h2.7306l5.11,15.9578Zm-4.7469-6.3126-1.7552-5.9223-1.73,5.9223Zm14.161-1.8279-2.4115.5424q-.2666-1.8168-1.6682-1.8168a1.6945,1.6945,0,0,0-1.4541.7839,4.73,4.73,0,0,0-.5549,2.6454,5.58,5.58,0,0,0,.5549,2.9055,1.6853,1.6853,0,0,0,1.4759.8471,1.4716,1.4716,0,0,0,1.1351-.483,3.2943,3.2943,0,0,0,.6382-1.7128l2.4116.509q-.74,4.18-4.2792,4.18a3.679,3.679,0,0,1-3.358-1.7611,7.9121,7.9121,0,0,1-1.0952-4.2467,7.13,7.13,0,0,1,1.2366-4.5217,3.961,3.961,0,0,1,3.2457-1.553,3.9036,3.9036,0,0,1,2.6508.8843,5.0827,5.0827,0,0,1,1.4723,2.7977ZM298.01,395.3v-1.7314a3.9081,3.9081,0,0,1-1.3382,1.4638,3.1576,3.1576,0,0,1-1.73.5276,2.8564,2.8564,0,0,1-1.6391-.49,2.8986,2.8986,0,0,1-1.077-1.3933,7.5092,7.5092,0,0,1-.3554-2.623v-7.312h2.455V389.05a22.4018,22.4018,0,0,0,.1089,2.8906,1.6072,1.6072,0,0,0,.4968.9549,1.3526,1.3526,0,0,0,.9247.3344,1.7208,1.7208,0,0,0,1.135-.4385,2.0611,2.0611,0,0,0,.6855-1.1331,17.1328,17.1328,0,0,0,.1631-3.043v-4.8746h2.4442V395.3Zm6.6507-8.0328-2.2193-.5015a4.4574,4.4574,0,0,1,1.3345-2.5191,4.0891,4.0891,0,0,1,2.6727-.7691,5.042,5.042,0,0,1,2.368.4459,2.6141,2.6141,0,0,1,1.1677,1.2149,7.5132,7.5132,0,0,1,.3518,2.794l-.0218,3.57a15.89,15.89,0,0,0,.116,2.2367,8.051,8.051,0,0,0,.4352,1.5605h-2.4224l-.3191-1.2633a4.498,4.498,0,0,1-1.3418,1.1444,3.221,3.221,0,0,1-1.5267.3789,2.8693,2.8693,0,0,1-2.2085-.9288,3.5069,3.5069,0,0,1-.8594-2.4782,3.939,3.939,0,0,1,.3481-1.7091,2.9167,2.9167,0,0,1,.99-1.1629,6.422,6.422,0,0,1,2.038-.7729,11.5094,11.5094,0,0,0,2.3717-.75,3.6942,3.6942,0,0,0-.1342-1.26,1.0343,1.0343,0,0,0-.49-.4867,2.1017,2.1017,0,0,0-1.0009-.1932,1.6129,1.6129,0,0,0-1.037.3047,2.2281,2.2281,0,0,0-.613,1.1443Zm3.2747,2.4819a12.2849,12.2849,0,0,1-1.4578.457,3.3632,3.3632,0,0,0-1.4868.6762,1.3347,1.3347,0,0,0-.3482.9549,1.6629,1.6629,0,0,0,.3845,1.1183,1.2337,1.2337,0,0,0,.9754.45,1.7505,1.7505,0,0,0,1.03-.3641,1.9662,1.9662,0,0,0,.7072-.8657,5.6878,5.6878,0,0,0,.1958-1.8168v-.6094Zm12.8846-2.59-2.4116.5424q-.2666-1.8168-1.6682-1.8168a1.6947,1.6947,0,0,0-1.4541.7839,4.7314,4.7314,0,0,0-.5548,2.6454,5.5811,5.5811,0,0,0,.5548,2.9055,1.6854,1.6854,0,0,0,1.4759.8471,1.4714,1.4714,0,0,0,1.1351-.483,3.2943,3.2943,0,0,0,.6383-1.7128l2.4115.509q-.74,4.18-4.2792,4.18a3.6791,3.6791,0,0,1-3.358-1.7611,7.9129,7.9129,0,0,1-1.0952-4.2467,7.1305,7.1305,0,0,1,1.2366-4.5217,3.961,3.961,0,0,1,3.2457-1.553,3.9041,3.9041,0,0,1,2.6509.8843,5.0833,5.0833,0,0,1,1.4723,2.7977Zm7.9345,8.1405v-1.7314a3.9079,3.9079,0,0,1-1.3381,1.4638,3.1579,3.1579,0,0,1-1.73.5276,2.8564,2.8564,0,0,1-1.6391-.49,2.8987,2.8987,0,0,1-1.0771-1.3933,7.5115,7.5115,0,0,1-.3554-2.623v-7.312H325.07V389.05a22.4287,22.4287,0,0,0,.1088,2.8906,1.6077,1.6077,0,0,0,.4968.9549,1.3528,1.3528,0,0,0,.9247.3344,1.721,1.721,0,0,0,1.1351-.4385,2.0615,2.0615,0,0,0,.6854-1.1331,17.1191,17.1191,0,0,0,.1632-3.043v-4.8746h2.4441V395.3Zm4.8268,0V379.3417h2.4514V395.3Zm9.1892-11.5587v2.4373H341.102v4.6591a10.3461,10.3461,0,0,0,.0725,1.75.5864.5864,0,0,0,.6056.4384,2.6613,2.6613,0,0,0,.9791-.2935l.21,2.37a3.9917,3.9917,0,0,1-1.922.457,2.3,2.3,0,0,1-1.4978-.457,2.2479,2.2479,0,0,1-.7542-1.3152,13.7039,13.7039,0,0,1-.1487-2.5711v-5.0381h-1.1278v-2.4373h1.1278v-2.3l2.4551-1.7834v4.0833ZM350.5559,395.3v-1.7314a3.9071,3.9071,0,0,1-1.3381,1.4638,3.1576,3.1576,0,0,1-1.73.5276,2.8564,2.8564,0,0,1-1.6391-.49,2.898,2.898,0,0,1-1.077-1.3933,7.5092,7.5092,0,0,1-.3554-2.623v-7.312h2.455V389.05a22.4287,22.4287,0,0,0,.1088,2.8906,1.6083,1.6083,0,0,0,.4968.9549,1.3529,1.3529,0,0,0,.9248.3344,1.7208,1.7208,0,0,0,1.135-.4385,2.06,2.06,0,0,0,.6854-1.1331,17.1191,17.1191,0,0,0,.1632-3.043v-4.8746H352.83V395.3Zm7.173,0h-2.455V383.7408h2.2737v1.6422a5.003,5.003,0,0,1,1.048-1.5307,1.65,1.65,0,0,1,1.0662-.3753,2.63,2.63,0,0,1,1.6065.58l-.7651,2.6639a1.8645,1.8645,0,0,0-1.15-.4978,1.2175,1.2175,0,0,0-.8958.3864,2.5547,2.5547,0,0,0-.5584,1.397,26.8106,26.8106,0,0,0-.1705,3.7228V395.3Z" transform="translate(-106.1709 -219.0447)" fill="#1d1d1b" fill-rule="evenodd"/><path d="M364.144,387.2667l-2.2193-.5015a4.4563,4.4563,0,0,1,1.3346-2.5191,4.0886,4.0886,0,0,1,2.6726-.7691,5.042,5.042,0,0,1,2.368.4459,2.6146,2.6146,0,0,1,1.1677,1.2149,7.5154,7.5154,0,0,1,.3518,2.794l-.0218,3.57a15.89,15.89,0,0,0,.116,2.2367,8.0581,8.0581,0,0,0,.4352,1.5605h-2.4224l-.3192-1.2633a4.4956,4.4956,0,0,1-1.3418,1.1444,3.22,3.22,0,0,1-1.5266.3789,2.87,2.87,0,0,1-2.2085-.9288,3.5064,3.5064,0,0,1-.8594-2.4782,3.9375,3.9375,0,0,1,.3481-1.7091,2.9167,2.9167,0,0,1,.99-1.1629,6.421,6.421,0,0,1,2.038-.7729,11.5094,11.5094,0,0,0,2.3717-.75,3.6942,3.6942,0,0,0-.1342-1.26,1.0343,1.0343,0,0,0-.49-.4867,2.102,2.102,0,0,0-1.0009-.1932,1.6132,1.6132,0,0,0-1.0371.3047,2.2289,2.2289,0,0,0-.6129,1.1443Zm3.2747,2.4819a12.2849,12.2849,0,0,1-1.4578.457,3.3632,3.3632,0,0,0-1.4868.6762,1.3347,1.3347,0,0,0-.3482.9549,1.6633,1.6633,0,0,0,.3844,1.1183,1.234,1.234,0,0,0,.9755.45,1.7505,1.7505,0,0,0,1.03-.3641,1.9676,1.9676,0,0,0,.7072-.8657,5.6908,5.6908,0,0,0,.1958-1.8168v-.6094Zm6.6544-5.339h2.6146l2.1976,8.2073,2.1686-8.2073h2.5276l-3.26,11.1239L379.694,397.7a6.996,6.996,0,0,1-.8232,1.7834,2.7258,2.7258,0,0,1-1.0408.8732,3.5976,3.5976,0,0,1-1.5557.3046,5.3076,5.3076,0,0,1-1.3925-.1858l-.214-2.3964a4.2412,4.2412,0,0,0,1.03.1411,1.5249,1.5249,0,0,0,1.1532-.4755,3.88,3.88,0,0,0,.74-1.7425L374.0731,384.41Zm16.0613,11.5586V380.0105h4.1449a12.3414,12.3414,0,0,1,3.0281.23,3.4527,3.4527,0,0,1,1.8748,1.5753,5.8886,5.8886,0,0,1,.74,3.1135,6.01,6.01,0,0,1-.6383,2.9018,3.74,3.74,0,0,1-1.5956,1.6422,8.0665,8.0665,0,0,1-3.2928.4756h-1.69v6.0189Zm2.5711-13.2566v4.5254h1.4252a6.11,6.11,0,0,0,1.951-.2043,1.7418,1.7418,0,0,0,.8413-.7469,2.8189,2.8189,0,0,0-.0073-2.66,1.7106,1.7106,0,0,0-.8413-.7319,7.5747,7.5747,0,0,0-2.1142-.1821Zm14.6832,9.5784,2.4333.509a4.9615,4.9615,0,0,1-1.5194,2.5859,4.2208,4.2208,0,0,1-5.6754-.561,7.1019,7.1019,0,0,1-1.3163-4.57,7.4493,7.4493,0,0,1,1.3273-4.6368,3.5063,3.5063,0,0,1,2.9119-1.4713,3.677,3.677,0,0,1,3.1152,1.5047,8.347,8.347,0,0,1,1.2946,5.0716l-.0109.3492H403.82a3.5159,3.5159,0,0,0,.5983,2.1215,1.7178,1.7178,0,0,0,1.3962.7505q1.18,0,1.5738-1.6533Zm.1378-3.0913a3.4265,3.4265,0,0,0-.562-2.0323,1.537,1.537,0,0,0-2.5712.03,3.2034,3.2034,0,0,0-.533,2.0026Zm3.5576,3.47,2.455-.4682a1.8876,1.8876,0,0,0,1.9764,1.82,2.0937,2.0937,0,0,0,1.3164-.3492,1.1085,1.1085,0,0,0,.4352-.9029.8716.8716,0,0,0-.1887-.5981,1.7319,1.7319,0,0,0-.7978-.3827,10.7,10.7,0,0,1-3.8367-1.5568,3.2611,3.2611,0,0,1-1.019-2.5376,3.4353,3.4353,0,0,1,.9972-2.5785,4.0073,4.0073,0,0,1,2.9012-.97,4.4875,4.4875,0,0,1,2.7633.7245,3.9711,3.9711,0,0,1,1.3272,2.337l-2.3064.5313a1.6091,1.6091,0,0,0-1.7406-1.3933,2.3348,2.3348,0,0,0-1.2874.2675.8122.8122,0,0,0-.3808.6911.7494.7494,0,0,0,.3518.6316,9.4494,9.4494,0,0,0,2.1758.7839,5.8519,5.8519,0,0,1,2.7851,1.4268,3.2869,3.2869,0,0,1,.7216,2.2292,3.6857,3.6857,0,0,1-1.12,2.7643,4.2482,4.2482,0,0,1-3.0969,1.0886,4.5563,4.5563,0,0,1-2.9338-.9066,4.4039,4.4039,0,0,1-1.4976-2.6527Zm18.8463-4.8413-2.4115.5425q-.2665-1.8168-1.6682-1.8168a1.6946,1.6946,0,0,0-1.4542.7839,4.7312,4.7312,0,0,0-.5548,2.6454,5.58,5.58,0,0,0,.5548,2.9054,1.6855,1.6855,0,0,0,1.476.8472,1.471,1.471,0,0,0,1.135-.4831,3.2934,3.2934,0,0,0,.6383-1.7128l2.4115.5091q-.74,4.18-4.2791,4.18a3.6789,3.6789,0,0,1-3.358-1.7611,7.9123,7.9123,0,0,1-1.0952-4.2467,7.1305,7.1305,0,0,1,1.2365-4.5217,3.9607,3.9607,0,0,1,3.2457-1.553,3.9039,3.9039,0,0,1,2.6508.8842,5.0835,5.0835,0,0,1,1.4724,2.7977Zm3.6844.1078-2.2194-.5016a4.4569,4.4569,0,0,1,1.3346-2.519,4.089,4.089,0,0,1,2.6726-.7691,5.0439,5.0439,0,0,1,2.3681.4458,2.6157,2.6157,0,0,1,1.1677,1.215,7.5178,7.5178,0,0,1,.3517,2.7939l-.0218,3.5706a15.8873,15.8873,0,0,0,.1161,2.2367,8.0431,8.0431,0,0,0,.4352,1.56h-2.4224l-.3192-1.2632a4.4949,4.4949,0,0,1-1.3418,1.1443,3.2194,3.2194,0,0,1-1.5267.379,2.8694,2.8694,0,0,1-2.2084-.9288,3.5066,3.5066,0,0,1-.86-2.4782,3.939,3.939,0,0,1,.3481-1.7091,2.9177,2.9177,0,0,1,.99-1.1629,6.42,6.42,0,0,1,2.038-.7729,11.506,11.506,0,0,0,2.3717-.75,3.6966,3.6966,0,0,0-.1342-1.26,1.0352,1.0352,0,0,0-.49-.4867,2.1022,2.1022,0,0,0-1.0009-.1932,1.613,1.613,0,0,0-1.0371.3047,2.2277,2.2277,0,0,0-.6129,1.1443Zm3.2747,2.4819a12.294,12.294,0,0,1-1.4579.457,3.362,3.362,0,0,0-1.4868.6762,1.3343,1.3343,0,0,0-.3481.9549,1.6633,1.6633,0,0,0,.3844,1.1183,1.2339,1.2339,0,0,0,.9755.45,1.7508,1.7508,0,0,0,1.03-.3641,1.9663,1.9663,0,0,0,.7071-.8658,5.687,5.687,0,0,0,.1959-1.8168v-.6093Z" transform="translate(-106.1709 -219.0447)" fill="#1d1d1b" fill-rule="evenodd"/><path d="M237.6078,373.0511c-1.6017-1.6017-1.74-4.4372-.2823-5.8024,1.5709-1.4716,3.0881-1.8575,4.6832-1.191,4.42,1.8469,3.3092,8.2192-1.4331,8.2192a3.49,3.49,0,0,1-2.9678-1.2258ZM250.85,357.5022V332.55l-1.1172-1.8872a18.01,18.01,0,0,0-10.1861-7.9614c-2.3624-.7862-3.4431-.8513-12.4169-.7484l-9.8293.1128-.1233,23.275c-.0854,16.1265.0232,24.0435.3535,25.7772a13.919,13.919,0,0,0,4.1035,7.8691c3.799,3.4322,4.8776,3.6436,18.1026,3.548l11.1132-.08V357.5022Zm-22.5335,37.55a27.3354,27.3354,0,0,1-9.196-3.7534,28.4089,28.4089,0,0,1-12.9226-17.0856c-.8175-2.95-.8494-4.2246-.8494-34.0236V309.2313l17.0893.1329,17.0893.133,3.3549,1.1361A29.52,29.52,0,0,1,261.127,327.727c1.9832,5.0278,2.0934,7.0517,2.0939,38.4771l.0006,29.4606-16.25-.043c-11.3295-.03-16.9785-.2023-18.6544-.5692Z" transform="translate(-106.1709 -219.0447)" fill="#df0a1d" fill-rule="evenodd"/><path d="M237.3338,292.7225c5.2761-1.118,10.4122-4.6937,12.59-8.7649.9221-1.7238.9271-1.853,1.044-26.7894l.1175-25.0574h-11.32c-10.3917,0-11.5086.0707-13.6218.8614a14.2428,14.2428,0,0,0-7.6228,7.19l-1.22,2.6422v23.4846c0,15.0569.1489,23.56.4147,23.6944.6623.3349,5.733-6.3117,8.1665-10.7045a106.3212,106.3212,0,0,0,9.8269-25.7806q2.5015-9.7131.6543,1.0989c-2.6678,15.4972-6.4456,27.4238-11.1659,35.252a31.22,31.22,0,0,0-1.8156,3.25c0,.5056,11.2177.2023,13.9523-.3772ZM205.3486,274.77c0-34.6619-.055-33.9765,3.2306-40.2684a32.52,32.52,0,0,1,12.0764-11.922c6.1242-3.1339,6.3144-3.1589,25.4767-3.3574l17.0892-.177v28.6658c0,17.614-.1707,30.0274-.4428,32.1975A27.8543,27.8543,0,0,1,254.6,296.8806a28.7059,28.7059,0,0,1-11.7181,7.2567l-3.3549,1.1316-17.0893.1414-17.0893.1413V274.77Z" transform="translate(-106.1709 -219.0447)" fill="#055ea3" fill-rule="evenodd"/><path d="M137.4109,335.2144c-.8594-.7148-1.0484-1.246-1.0484-2.9456,0-1.7174.18-2.2119,1.0484-2.879a3.7276,3.7276,0,0,1,5.2048.4662c1.4706,1.7477,1.4226,3.47-.14,5.0325a3.61,3.61,0,0,1-5.0647.3259Zm43.195,18.429a14.98,14.98,0,0,0,6.2074-5.8238c1.53-2.77,1.8175-5.5228,1.6808-16.1086l-.13-10.0649-24.31-.1082c-28.231-.1258-27.0006-.2718-30.8542,3.66a20.4857,20.4857,0,0,0-5.2545,9.5807c-.5867,2.4544-.86,18.2026-.3393,19.5594.2367.6168,2.56.6678,25.4766.5585l25.2162-.12,2.3066-1.1329Zm-65.3142-4.2141c.1647-18.5817.2162-19.1258,2.1661-22.8966a8.2221,8.2221,0,0,0,.6621-1.5043,15.4083,15.4083,0,0,0-2.6716-1.9113,21.2229,21.2229,0,0,1-7.9447-8.7163c-1.2806-2.7031-1.3356-3.036-1.3326-8.0616a25.6356,25.6356,0,0,1,3.0673-13.42q1.8227-3.7424,2.0644-1.2581c.7734,7.9181,3.364,14.2747,7.2472,17.7829a14.002,14.002,0,0,0,7.4132,3.5606c2.4851.4759,2.7.448,4.8189-.6257a28.21,28.21,0,0,1,12.7711-3.0893c3.4124-.0149,3.4179-.0168,4.79-1.5792,2.6721-3.0433,4.3218-7.6607,5.6329-15.7655.3531-2.1827,1.0381-1.5475,2.74,2.54a27.8175,27.8175,0,0,1,2.6051,11.1323l.1069,3.4473,20.8182.1088,20.8182.1087.222,1.5688c.1222.8628.1629,8.4624.0907,16.8882-.122,14.2334-.1952,15.5338-1.0321,18.3439a29.28,29.28,0,0,1-9.5726,14.5867,33.3837,33.3837,0,0,1-8.6985,4.8911c-4.9506,1.543-5.2584,1.5562-36.405,1.5715l-30.5339.0149.157-17.7183Z" transform="translate(-106.1709 -219.0447)" fill="#f9bf10" fill-rule="evenodd"/></svg>