<svg xmlns="http://www.w3.org/2000/svg" xmlns:xlink="http://www.w3.org/1999/xlink" viewBox="0 0 375.89 375.89"><defs><style>.cls-1{fill:none;}.cls-2{clip-path:url(#clip-path);}.cls-3{fill:#334782;}</style><clipPath id="clip-path" transform="translate(0 0)"><rect class="cls-1" width="376" height="376"/></clipPath></defs><g id="Capa_2" data-name="Capa 2"><g id="Capa_1-2" data-name="Capa 1"><g class="cls-2"><path class="cls-3" d="M187.94,0a15.2,15.2,0,0,0-3.08.26,15.42,15.42,0,0,0-3,.87,15.86,15.86,0,0,0-2.74,1.43,15.64,15.64,0,0,0-4.4,4.33,15.88,15.88,0,0,0-1.47,2.72,16.18,16.18,0,0,0-.91,3,16,16,0,0,0,0,6.16,16.18,16.18,0,0,0,.91,3,15.88,15.88,0,0,0,1.47,2.72,15.64,15.64,0,0,0,4.4,4.33,15.2,15.2,0,0,0,2.74,1.43,15.42,15.42,0,0,0,3,.87,15.2,15.2,0,0,0,3.08.26,156.63,156.63,0,1,1,0,313.25,15.2,15.2,0,0,0-3.08.26,16.14,16.14,0,0,0-3,.86,15.91,15.91,0,0,0-2.74,1.44,15.63,15.63,0,0,0-5.87,7.05,16.18,16.18,0,0,0-.91,3,15.59,15.59,0,0,0,.91,9.12,15.6,15.6,0,0,0,1.47,2.73,16.14,16.14,0,0,0,2,2.38,15.66,15.66,0,0,0,2.42,1.95,15.2,15.2,0,0,0,2.74,1.43,15.42,15.42,0,0,0,3,.87,15.2,15.2,0,0,0,3.08.26c103.62,0,188-84.33,188-187.95S291.56,0,187.94,0ZM122.11,13.12a15.48,15.48,0,0,0-6.08,1.2,15.64,15.64,0,0,0-2.71,1.44A14.76,14.76,0,0,0,111,17.7a15.75,15.75,0,0,0-2,2.37,15.71,15.71,0,0,0-2.35,5.64,16.35,16.35,0,0,0-.31,3.05,15.61,15.61,0,0,0,.3,3,15.79,15.79,0,0,0,.88,2.94A16.41,16.41,0,0,0,109,37.46a15.88,15.88,0,0,0,1.94,2.38,15.89,15.89,0,0,0,5.08,3.4,15.13,15.13,0,0,0,2.94.9,15.72,15.72,0,0,0,3.06.3,15.54,15.54,0,0,0,8.71-2.63,15.64,15.64,0,0,0,5.78-7,15.13,15.13,0,0,0,.9-2.94,15.71,15.71,0,0,0,0-6.11,15.1,15.1,0,0,0-.89-2.94,15.68,15.68,0,0,0-14.38-9.67ZM66.35,50.47a15.75,15.75,0,0,0-11.29,4.59,16.38,16.38,0,0,0-2,2.37,15.64,15.64,0,0,0-1.44,2.71,14.44,14.44,0,0,0-.89,2.94,15.21,15.21,0,0,0,0,6.11,14.44,14.44,0,0,0,.89,2.94,15.2,15.2,0,0,0,1.44,2.7,15.94,15.94,0,0,0,2,2.38,16.38,16.38,0,0,0,2.37,2,15.64,15.64,0,0,0,2.71,1.44,15.82,15.82,0,0,0,2.94.89,15.21,15.21,0,0,0,6.11,0,15.82,15.82,0,0,0,2.94-.89,15.2,15.2,0,0,0,2.7-1.44,15.57,15.57,0,0,0,4.33-4.33,15.2,15.2,0,0,0,1.44-2.7,16,16,0,0,0,1.2-6,15.65,15.65,0,0,0-.31-3.06,15.82,15.82,0,0,0-.89-2.94,15.64,15.64,0,0,0-1.44-2.71,16.38,16.38,0,0,0-2-2.37,15.72,15.72,0,0,0-10.86-4.59ZM29.12,106.36a15.77,15.77,0,0,0-4.64.6A15.68,15.68,0,0,0,14.31,116a16.77,16.77,0,0,0-.89,2.93,15.76,15.76,0,0,0,0,6.12,17.14,17.14,0,0,0,.89,2.94,16.31,16.31,0,0,0,1.45,2.7A15.86,15.86,0,0,0,20.08,135a15.69,15.69,0,0,0,2.71,1.45,15.1,15.1,0,0,0,2.94.89,15.71,15.71,0,0,0,6.11,0,15.13,15.13,0,0,0,2.94-.9,15.67,15.67,0,0,0,7-5.78A16.41,16.41,0,0,0,43.26,128a15.81,15.81,0,0,0,.88-9.06,15.71,15.71,0,0,0-2.35-5.64,15.35,15.35,0,0,0-1.95-2.38A15.88,15.88,0,0,0,37.46,109a16.41,16.41,0,0,0-2.71-1.45A15.73,15.73,0,0,0,29.12,106.36Zm252.49,18.78a15.65,15.65,0,0,0-10.77,4.75l-98.56,98.56-35.91-35.92a15.58,15.58,0,0,0-2.36-2,15.67,15.67,0,0,0-8.78-2.8,16.17,16.17,0,0,0-3.1.27,15.48,15.48,0,0,0-3,.89,16.05,16.05,0,0,0-2.75,1.45,15.77,15.77,0,0,0-2.41,2,15.81,15.81,0,0,0-3.42,5.15,16.46,16.46,0,0,0-.89,3,16.1,16.1,0,0,0-.27,3.1,15.66,15.66,0,0,0,2.79,8.77,15.81,15.81,0,0,0,2,2.37l47,47A15.69,15.69,0,0,0,175.34,266a16.3,16.3,0,0,0,2.94-.89,15.6,15.6,0,0,0,2.7-1.45,14.76,14.76,0,0,0,2.37-1.94L293,152a15.38,15.38,0,0,0,2.83-3.73,15.54,15.54,0,0,0,1.84-9.07,15.67,15.67,0,0,0-7.13-11.62,15.62,15.62,0,0,0-8.92-2.47ZM15.66,172.28a15.72,15.72,0,0,0-3.06.3A15.65,15.65,0,0,0,7,174.92a14.81,14.81,0,0,0-2.37,2,15.64,15.64,0,0,0,0,22.15A15.37,15.37,0,0,0,7,201a16,16,0,0,0,2.71,1.45,16.77,16.77,0,0,0,2.93.89,16.29,16.29,0,0,0,6.12,0,17.14,17.14,0,0,0,2.94-.89,16.31,16.31,0,0,0,2.7-1.45A15.37,15.37,0,0,0,26.73,199a15.75,15.75,0,0,0,1.95-2.37A15.6,15.6,0,0,0,31,191a15.71,15.71,0,0,0,0-6.11,15.6,15.6,0,0,0-2.34-5.65,15.75,15.75,0,0,0-1.95-2.37,14.81,14.81,0,0,0-2.37-2,16.31,16.31,0,0,0-2.7-1.45,16.3,16.3,0,0,0-2.94-.89A15.72,15.72,0,0,0,15.66,172.28ZM28.88,238.2a15.86,15.86,0,0,0-8.8,2.64,16,16,0,0,0-2.37,1.95,15.35,15.35,0,0,0-2,2.38,15.64,15.64,0,0,0-1.45,2.71,16.27,16.27,0,0,0-.89,2.93,15.72,15.72,0,0,0-.3,3.06,15.54,15.54,0,0,0,.3,3.05,16.62,16.62,0,0,0,.89,2.94A16,16,0,0,0,17.7,265a15.35,15.35,0,0,0,2.38,1.95,15,15,0,0,0,2.71,1.45,14.83,14.83,0,0,0,2.93.9,16,16,0,0,0,6.12,0,15.13,15.13,0,0,0,2.94-.9,15.64,15.64,0,0,0,2.71-1.44A15.27,15.27,0,0,0,39.86,265a15.89,15.89,0,0,0,3.4-5.08,15.69,15.69,0,0,0,1.19-6,16.45,16.45,0,0,0-.3-3.06,16.62,16.62,0,0,0-.89-2.94,15.78,15.78,0,0,0-5.73-7,15.66,15.66,0,0,0-8.65-2.68Zm37.47,55.89a15.64,15.64,0,0,0-11.29,4.59,16.38,16.38,0,0,0-2,2.37,15.64,15.64,0,0,0-1.44,2.71,14.44,14.44,0,0,0-.89,2.94,15.21,15.21,0,0,0,0,6.11,14.17,14.17,0,0,0,.89,2.93,15,15,0,0,0,1.44,2.71,15.94,15.94,0,0,0,2,2.38,17.07,17.07,0,0,0,2.37,1.95,16.36,16.36,0,0,0,2.71,1.44,15.82,15.82,0,0,0,2.94.89,15.71,15.71,0,0,0,6.11,0,15.67,15.67,0,0,0,5.64-2.33,16.58,16.58,0,0,0,2.38-1.95,15.94,15.94,0,0,0,2-2.38,15,15,0,0,0,1.44-2.71,15.5,15.5,0,0,0,.89-2.93,15.75,15.75,0,0,0-2.33-11.76,16.38,16.38,0,0,0-2-2.37,15.61,15.61,0,0,0-10.86-4.59Zm56,37.35a15.72,15.72,0,0,0-8.9,2.54A16,16,0,0,0,110,337.1a15.68,15.68,0,0,0-3.31,13.06,15.5,15.5,0,0,0,.89,2.93A15,15,0,0,0,109,355.8a15.48,15.48,0,0,0,7,5.77,14.55,14.55,0,0,0,2.93.89,15.26,15.26,0,0,0,6.12,0,14.83,14.83,0,0,0,2.94-.89,15.92,15.92,0,0,0,2.7-1.44,14.81,14.81,0,0,0,2.37-1.95,15.77,15.77,0,0,0,4.3-8,16.44,16.44,0,0,0,.29-3.06,15.68,15.68,0,0,0-.29-3.05,15.85,15.85,0,0,0-.9-2.94,15.2,15.2,0,0,0-1.44-2.7,15.57,15.57,0,0,0-4.33-4.33,15.2,15.2,0,0,0-2.7-1.44A15.51,15.51,0,0,0,122.36,331.44Z" transform="translate(0 0)"/></g></g></g></svg>