<svg xmlns="http://www.w3.org/2000/svg" xmlns:xlink="http://www.w3.org/1999/xlink" viewBox="0 0 323.42 400.01"><defs><style>.cls-1{fill:none;}.cls-2{clip-path:url(#clip-path);}.cls-3{fill:#334782;}.cls-4{clip-path:url(#clip-path-2);}</style><clipPath id="clip-path" transform="translate(-0.04 -0.03)"><rect class="cls-1" x="69.33" width="254.67" height="154"/></clipPath><clipPath id="clip-path-2" transform="translate(-0.04 -0.03)"><rect class="cls-1" y="126" width="317.33" height="274"/></clipPath></defs><g id="Capa_2" data-name="Capa 2"><g id="Capa_1-2" data-name="Capa 1"><g class="cls-2"><path class="cls-3" d="M314.64,153a8.81,8.81,0,0,1-6.53-2.88c-19.75-21.68-39.78-45.15-59.15-67.84-16-18.69-32.36-37.91-48.62-56.15a4.86,4.86,0,0,0-7.26,0c-16.27,18.24-32.67,37.46-48.63,56.15-19.37,22.69-39.4,46.16-59.15,67.84a8.83,8.83,0,1,1-13.06-11.89c19.57-21.47,39.5-44.83,58.78-67.41S170.43,24.6,190.18,2.91a8.83,8.83,0,0,1,13,0C223,24.6,243,48.07,262.39,70.77c19.22,22.52,39.1,45.8,58.6,67.22a9,9,0,0,1-.22,12.49A8.79,8.79,0,0,1,314.64,153Z" transform="translate(-0.04 -0.03)"/></g><path class="cls-3" d="M314.64,211.35a8.78,8.78,0,0,1-6.53-2.89c-19.75-21.68-39.78-45.15-59.15-67.85-16-18.68-32.36-37.9-48.62-56.14a4.86,4.86,0,0,0-7.26,0c-16.27,18.24-32.67,37.46-48.63,56.14-19.37,22.7-39.4,46.17-59.15,67.85a8.83,8.83,0,1,1-13.06-11.89c19.57-21.47,39.5-44.83,58.79-67.42S170.43,83,190.18,61.3a8.83,8.83,0,0,1,13,0C223,83,243,106.46,262.39,129.15s39.21,45.95,58.78,67.42a8.84,8.84,0,0,1-6.53,14.78Z" transform="translate(-0.04 -0.03)"/><g class="cls-4"><path class="cls-3" d="M110.82,400a207.48,207.48,0,0,1-56.06-7.6C17.27,381.8,2.15,359.66,1.53,358.72A8.83,8.83,0,0,1,10,345.06l2.28.29c24.71,3.2,58.56,7.57,80.91-2.28,27.56-12.16,43.76-28,48.16-47.11A176.84,176.84,0,0,0,145,266.57H85.41a8.82,8.82,0,0,1-6.52-14.77L190.18,129.6a8.83,8.83,0,0,1,13,0l111.3,122.2A8.83,8.83,0,0,1,308,266.57l-64.58.06c-1.23,5.7-3,14.33-4.27,20.76-2,10.06-3.22,15.84-3.72,17.71a138.52,138.52,0,0,1-30.64,57.21c-15.51,17.1-35,28.81-56.27,33.86C139,398.42,125.89,400,110.82,400ZM36.63,365.88a100.92,100.92,0,0,0,22.95,9.57c33.53,9.5,66.68,7.84,84.88,3.53,34.89-8.26,63.22-38.32,73.92-78.44.39-1.43,2-9.52,3.47-16.65,1.27-6.28,2.71-13.38,3.85-18.79.64-3,1.13-5.2,1.5-6.78.24-1,.43-1.73.6-2.31,1.94-6.67,7.6-7,8.72-7h0l51.5,0-87.73-96.31a4.87,4.87,0,0,0-7.21,0l-87.7,96.3h48.52a8.82,8.82,0,0,1,8.82,8.6,193.59,193.59,0,0,1-4.18,42.42c-5.72,24.82-25.31,44.77-58.24,59.29C81.63,367.47,58.18,367.68,36.63,365.88Z" transform="translate(-0.04 -0.03)"/></g></g></g></svg>