<svg viewBox="0 0 64 64" xmlns="http://www.w3.org/2000/svg"><path d="m32 2c-14.5 0-22.4 9-22.4 20.9v37.1h44.8v-37.1c0-17.7-12.1-17.4-12.1-17.4s-.9-3.5-10.3-3.5z" fill="#ffb300"/><path d="m42 49.1v-7.1h-20v7.1c-12.5.3-15 2.4-15 12.9h50c0-10.5-2.5-12.6-15-12.9" fill="#b386e2"/><path d="m15.8 32.9s-3.3-.8-3.3-5.7c0-3.8 2.5-4.5 2.5-4.5 8.8 0 23.2-11.5 23.2-11.5s5.4 10.1 10.7 11.5c0 0 2.5.5 2.5 4.5 0 4.8-3.4 5.7-3.4 5.7 0 7.3-10 16.1-16 16.1-6.1 0-16.2-8.8-16.2-16.1" fill="#ffdd67"/><path d="m26 43c-.1-.1-.2-.2-.2-.3 0-.8 2.7-1.7 6.1-1.7s6.1.9 6.1 1.7c0 .1-.1.2-.1.3 0 0-2.7-.7-6-.7s-5.9.7-5.9.7" fill="#937237"/><path d="m45.4 28.4c0 2.8-2.2 4.9-4.9 4.9s-4.9-2.2-4.9-4.9 9.8-2.7 9.8 0m-26.8-.3c0 2.8 2.2 4.9 4.9 4.9s4.9-2.2 4.9-4.9-9.8-2.7-9.8 0" fill="#fff"/><circle cx="23.5" cy="29.9" fill="#664e27" r="3.1"/><circle cx="23.5" cy="29.9" fill="#231f20" r="1"/><circle cx="40.5" cy="30.2" fill="#664e27" r="3.1"/><g fill="#231f20"><circle cx="40.5" cy="30.2" r="1"/><path d="m17.2 28.2c-.1-.1-.2-.2-.2-.3 0-.8 2.9-1.8 6.5-1.8s6.5 1 6.5 1.8c0 .1-.1.2-.2.3 0 0-2.8-.7-6.3-.7s-6.3.7-6.3.7m17 0c-.1-.1-.2-.2-.2-.3 0-.8 2.9-1.8 6.5-1.8s6.5 1 6.5 1.8c0 .1-.1.2-.2.3 0 0-2.8-.7-6.3-.7s-6.3.7-6.3.7"/></g><path d="m32 39c-3.2 0-4.8-2.3-3.2-2.3h6.4c1.6 0 0 2.3-3.2 2.3" fill="#eba352"/></svg>